<?xml version="1.0" encoding="UTF-8" standalone="no"?>
<svg
   width="58"
   height="58"
   viewBox="0 0 58 58"
   fill="none"
   version="1.1"
   id="svg2"
   sodipodi:docname="AMP_white_1741766890-AMP.svg"
   inkscape:version="1.4 (86a8ad7, 2024-10-11)"
   xmlns:inkscape="http://www.inkscape.org/namespaces/inkscape"
   xmlns:sodipodi="http://sodipodi.sourceforge.net/DTD/sodipodi-0.dtd"
   xmlns="http://www.w3.org/2000/svg"
   xmlns:svg="http://www.w3.org/2000/svg">
  <defs
     id="defs2" />
  <sodipodi:namedview
     id="namedview2"
     pagecolor="#ffffff"
     bordercolor="#000000"
     borderopacity="0.25"
     inkscape:showpageshadow="2"
     inkscape:pageopacity="0.0"
     inkscape:pagecheckerboard="0"
     inkscape:deskcolor="#d1d1d1"
     inkscape:zoom="2.0481713"
     inkscape:cx="29.782664"
     inkscape:cy="47.115199"
     inkscape:window-width="1366"
     inkscape:window-height="705"
     inkscape:window-x="-8"
     inkscape:window-y="-8"
     inkscape:window-maximized="1"
     inkscape:current-layer="svg2" />
  <g
     id="g2"
     style="fill:#bd9e59;fill-opacity:1"
     transform="matrix(1.2608696,0,0,1.2608696,-7.5652174,-7.5652174)">
    <path
       d="m 29.0265,26.1758 -4.3893,2.736 H 24.6195 C 19.8053,31.9126 13.5398,31.1889 9.52212,27.182 18.2832,22.0277 25.5929,14.7376 30.7611,6 35.9292,14.7376 43.2389,22.0277 52,27.182 43.2389,32.3362 35.9292,39.6264 30.7611,48.3639 26.7434,44.357 26.0177,38.126 29.0265,33.3071 l 2.7434,-4.3953 2.531,3.5657 3.5398,-12.3562 -12.3894,3.5303 z"
       fill="white"
       id="path1"
       style="fill:#bd9e59;fill-opacity:1" />
    <path
       d="M 14.8496,52 14.177,50.8526 C 12.4602,47.9225 10.0354,45.4689 7.13274,43.739 L 6,43.0683 7.13274,42.3975 C 10.0354,40.6676 12.4602,38.2141 14.177,35.2839 l 0.6726,-1.1474 0.6725,1.1474 c 1.7168,2.9302 4.1416,5.3837 7.0443,7.1136 l 1.1327,0.6708 -1.1327,0.6707 c -2.9027,1.7299 -5.3275,4.1835 -7.0443,7.1136 z"
       fill="white"
       id="path2"
       style="fill:#bd9e59;fill-opacity:1" />
  </g>
</svg>
