<svg xmlns="http://www.w3.org/2000/svg" x="0px" y="0px" viewBox="0 0 35 35" xml:space="preserve">
    <switch>
        <g>
            <linearGradient id="22747239236096928" gradientUnits="userSpaceOnUse" x1="5.3265" y1="7.0362" x2="28.0513" y2="7.0362">
                <stop offset="0" stop-color="#c7b586"/>
                <stop offset="1" stop-color="#826734"/>
            </linearGradient>
            <path d="M25.4 8.8H7.7c-1.3 0-2.4-1.1-2.4-2.4v-.5c0-.3.3-.6.6-.6h21.5c.3 0 .6.3.6.6v.3c.1 1.4-1.1 2.6-2.6 2.6z" fill="url(#22747239236096928)"/>
            <linearGradient id="1411962774516935" gradientUnits="userSpaceOnUse" x1="18.2796" y1="20.1511" x2="31.3433" y2="20.1511" gradientTransform="matrix(1.1302 .07516 .07516 1.0434 -4.923 -2.842)">
                <stop offset="0" stop-color="#c7b586"/>
                <stop offset="1" stop-color="#826734"/>
            </linearGradient>
            <path d="M18.2 26.3L27.1 11c.7-1.1 2.1-1.5 3.2-.9l.8.4c.3.2.4.5.2.8L20.5 30c-.2.3-.5.4-.8.2l-.5-.3c-1.3-.7-1.7-2.3-1-3.6z" fill="url(#1411962774516935)"/>
            <linearGradient id="7043058167033086" gradientUnits="userSpaceOnUse" x1="1.5435" y1="20.174" x2="15.1003" y2="20.174" gradientTransform="matrix(1.1331 -.0809 -.0809 1.0492 .711 -.432)">
                <stop offset="0" stop-color="#c7b586"/>
                <stop offset="1" stop-color="#826734"/>
            </linearGradient>
            <path d="M6 11.2l9.2 15.1c.7 1.1.3 2.6-.8 3.2l-.8.5c-.3.2-.7.1-.8-.2L1.6 11.5c-.2-.3-.1-.7.2-.8l.5-.3c1.3-.8 3-.4 3.7.8z" fill="url(#7043058167033086)"/>
            <linearGradient id="7091010196200217" gradientUnits="userSpaceOnUse" x1="10.4641" y1="17.5" x2="22.9137" y2="17.5">
                <stop offset="0" stop-color="#c7b586"/>
                <stop offset="1" stop-color="#826734"/>
            </linearGradient>
            <path d="M11.5 11.8h10.4c.8 0 1.3.8.9 1.5l-5.2 9.4c-.4.7-1.4.7-1.8 0l-5.2-9.4c-.4-.7.1-1.5.9-1.5z" fill="url(#7091010196200217)"/>
        </g>
    </switch>
</svg>
