<?xml version="1.0" encoding="UTF-8" standalone="no"?>
<svg
   width="58"
   height="58"
   viewBox="0 0 58 58"
   fill="none"
   version="1.1"
   id="svg3"
   sodipodi:docname="Cyberboss_white_1741766759-Cyberboss.svg"
   inkscape:version="1.4 (86a8ad7, 2024-10-11)"
   xmlns:inkscape="http://www.inkscape.org/namespaces/inkscape"
   xmlns:sodipodi="http://sodipodi.sourceforge.net/DTD/sodipodi-0.dtd"
   xmlns="http://www.w3.org/2000/svg"
   xmlns:svg="http://www.w3.org/2000/svg">
  <defs
     id="defs3" />
  <sodipodi:namedview
     id="namedview3"
     pagecolor="#ffffff"
     bordercolor="#000000"
     borderopacity="0.25"
     inkscape:showpageshadow="2"
     inkscape:pageopacity="0.0"
     inkscape:pagecheckerboard="0"
     inkscape:deskcolor="#d1d1d1"
     inkscape:zoom="2.8965517"
     inkscape:cx="28.654762"
     inkscape:cy="28.827381"
     inkscape:window-width="1366"
     inkscape:window-height="705"
     inkscape:window-x="-8"
     inkscape:window-y="-8"
     inkscape:window-maximized="1"
     inkscape:current-layer="svg3" />
  <g
     id="g3"
     style="fill:#bd9e59;fill-opacity:1"
     transform="matrix(1.2083333,0,0,1.2083333,-6.0416657,-6.0416657)">
    <path
       d="m 18.8986,33.195 c 1.84,1.3471 4.4357,0.9529 5.7828,-0.8871 l -6.67,-4.8793 c -1.3471,1.84 -0.9528,4.4357 0.8872,5.7828 z"
       fill="white"
       id="path1"
       style="fill:#bd9e59;fill-opacity:1" />
    <path
       d="m 37.9064,27.4123 c 1.3472,1.8564 0.9529,4.4357 -0.8871,5.7828 v -0.0164 c -1.84,1.3636 -4.4357,0.9528 -5.7829,-0.8872 z"
       fill="white"
       id="path2"
       style="fill:#bd9e59;fill-opacity:1" />
    <path
       fill-rule="evenodd"
       clip-rule="evenodd"
       d="M 29,47 C 40.7257,47 49.7943,35.1527 53,29 l -6.8229,-5.1055 1.68,-7.9854 L 37.0743,17.0545 29,11 20.9257,17.0545 10.1429,15.9091 11.8229,23.8945 5,29 c 3.20571,6.1527 12.2743,18 24,18 z m -8.5714,-24.5455 5.1428,3.2728 h 6.8572 l 5.1428,-3.2728 6.8572,4.9091 -1.7143,8.1819 -6.8572,3.2563 -3.4285,-3.2563 h -6.8572 l -3.4285,3.2563 -6.8572,-3.2563 -1.7143,-8.1819 z"
       fill="white"
       id="path3"
       style="fill:#bd9e59;fill-opacity:1" />
  </g>
</svg>
