<?xml version="1.0" encoding="UTF-8" standalone="no"?>
<!-- Created with Inkscape (http://www.inkscape.org/) -->

<svg
   version="1.1"
   id="svg1"
   width="57.999996"
   height="62.03775"
   viewBox="0 0 57.999996 62.03775"
   sodipodi:docname="Cypher_TFT_icon.svg"
   xml:space="preserve"
   inkscape:version="1.4 (86a8ad7, 2024-10-11)"
   xmlns:inkscape="http://www.inkscape.org/namespaces/inkscape"
   xmlns:sodipodi="http://sodipodi.sourceforge.net/DTD/sodipodi-0.dtd"
   xmlns="http://www.w3.org/2000/svg"
   xmlns:svg="http://www.w3.org/2000/svg"><defs
     id="defs1" /><sodipodi:namedview
     id="namedview1"
     pagecolor="#ffffff"
     bordercolor="#000000"
     borderopacity="0.25"
     inkscape:showpageshadow="2"
     inkscape:pageopacity="0.0"
     inkscape:pagecheckerboard="0"
     inkscape:deskcolor="#d1d1d1"
     showguides="true"
     inkscape:zoom="2.8284271"
     inkscape:cx="47.022601"
     inkscape:cy="24.218407"
     inkscape:window-width="1366"
     inkscape:window-height="705"
     inkscape:window-x="-8"
     inkscape:window-y="-8"
     inkscape:window-maximized="1"
     inkscape:current-layer="g1" /><g
     style="fill:none"
     id="g3914"
     transform="matrix(14.606899,0,0,14.606899,-400.21573,-825.65108)" /><g
     inkscape:groupmode="layer"
     inkscape:label="Image"
     id="g1"
     transform="translate(-85.5,-98.981129)"><g
       id="g2"
       transform="matrix(0.0684608,0,0,0.0684608,183.20242,185.85759)"
       style="fill:#bd9e59;fill-opacity:1"><path
         id="path2"
         style="fill:#bd9e59;fill-opacity:1"
         d="m -1053.4194,-440.58429 c -29.5069,-39.21181 -46.401,-57.04607 -51.4745,-60.852 4.3646,-10.02896 14.8608,-34.60508 23.0995,-50.119 8.2387,-15.51393 23.759,-40.31467 28.0991,-46.1187 3.8117,4.22692 -0.1298,0.12823 24.1565,26.9323 10.856,11.98142 -0.1637,-0.0153 24.8871,26.27214 15.26192,-16.06124 15.30607,-15.85606 24.39523,-26.27214 9.08915,-10.41609 17.7777,-22.37116 21.39518,-26.95579 5.81295,7.35802 22.7022,29.75853 32.90485,45.14219 10.22432,15.41632 21.4052,42.14043 25.90825,51.119 -3.8203,2.77881 -22.52236,23.91827 -50.94825,60.852 -28.42589,36.93373 -32.49308,49.49522 -50.94886,77.76774 -19.3089,-28.13397 -21.9673,-38.55593 -51.4741,-77.76774 z m 304.12008,-459.90886 c -21.87619,28.61694 -45.87036,54.76225 -70.21632,79.14136 18.34741,16.25152 37.04843,32.15124 56.10307,47.34191 -32.11072,25.43996 -62.80885,52.64428 -92.79973,80.90947 -14.4687,-18.01959 -29.28733,-35.68555 -44.81319,-51.93707 -16.23126,-17.31234 -33.16789,-33.91747 -50.10453,-49.81719 89.97634,-80.55401 181.01351,-164.28869 226.1785,-298.89953 41.98981,-6.7131 74.09869,-43.1041 74.09869,-86.9135 0,-48.7582 -39.52004,-88.328 -88.21379,-88.328 -48.69375,0 -88.21194,39.5698 -88.21194,88.328 0,27.9115 13.40786,52.6424 33.87327,68.8939 -14.46687,41.6915 -34.22689,78.0824 -57.51569,110.9409 -56.10307,-61.1237 -107.26658,-126.8388 -151.72622,-197.5008 0,0.3536 -0.7053,1.059 -1.059,1.4126 -44.4595,70.3084 -95.9748,135.6718 -152.4315,196.44 -23.6424,-32.8567 -43.0488,-69.2476 -57.8693,-110.939 20.4654,-16.2516 33.8751,-40.9843 33.8751,-68.894 0,-48.7582 -39.52,-88.3284 -88.2138,-88.3284 -48.6937,0 -88.2131,39.5702 -88.2131,88.3284 0,43.8095 32.11,80.2004 74.0999,86.9135 45.1649,134.61087 136.2003,218.69917 226.1784,298.89956 -16.9366,15.89974 -33.8751,32.50486 -50.1063,49.81721 -15.524,16.2515 -30.3445,33.56386 -44.8114,51.58345 -29.9927,-28.26522 -60.6908,-56.17678 -93.1533,-81.61488 19.0546,-14.83888 37.402,-30.73863 55.7513,-46.63653 -24.3478,-24.37911 -47.9884,-50.52442 -69.8646,-79.49498 -52.9297,45.92927 -109.0324,88.32613 -168.6646,125.7779 81.5098,51.58345 156.6676,112.35162 225.1195,179.83481 14.8205,14.48528 29.2873,29.32418 43.4024,44.51668 38.4611,-80.55399 94.2105,-139.91141 154.9013,-196.08631 60.69088,56.1749 116.08857,115.53232 154.90322,195.73269 14.46686,-15.54612 29.63912,-30.385 44.81137,-45.2239 68.10199,-66.42235 142.90608,-126.13154 224.06233,-177.00775 -59.63183,-37.80353 -116.08852,-80.55398 -169.01643,-127.1905 z m -251.93708,55.82309 c 0,0 -1.4107,1.41264 -2.1162,2.11985 0,0 -1.4126,-1.41439 -2.4697,-2.11985 -27.8766,-24.7327 -55.0459,-49.46357 -80.8045,-75.25531 28.9337,-30.38501 56.8103,-61.82908 82.9206,-94.68743 0,0 0,-0.3537 0.3537,-0.7073 26.11033,33.21205 53.98689,64.65608 82.56701,95.04108 -25.75856,25.79173 -52.92791,50.52261 -80.80261,75.25533 z" /></g></g></svg>
