<?xml version="1.0" encoding="UTF-8" standalone="no"?>
<svg
   width="58"
   height="58"
   viewBox="0 0 58 58"
   fill="none"
   version="1.1"
   id="svg1"
   sodipodi:docname="Dryad_white_1709371956-drayd.svg"
   inkscape:version="1.3 (0e150ed6c4, 2023-07-21)"
   xmlns:inkscape="http://www.inkscape.org/namespaces/inkscape"
   xmlns:sodipodi="http://sodipodi.sourceforge.net/DTD/sodipodi-0.dtd"
   xmlns="http://www.w3.org/2000/svg"
   xmlns:svg="http://www.w3.org/2000/svg">
  <defs
     id="defs1" />
  <sodipodi:namedview
     id="namedview1"
     pagecolor="#ffffff"
     bordercolor="#000000"
     borderopacity="0.25"
     inkscape:showpageshadow="2"
     inkscape:pageopacity="0.0"
     inkscape:pagecheckerboard="0"
     inkscape:deskcolor="#d1d1d1"
     inkscape:zoom="4.0689655"
     inkscape:cx="29"
     inkscape:cy="28.877119"
     inkscape:window-width="1366"
     inkscape:window-height="705"
     inkscape:window-x="-8"
     inkscape:window-y="-8"
     inkscape:window-maximized="1"
     inkscape:current-layer="svg1" />
  <path
     d="M 15.455309,18.448843 7.6529235,14.958622 15.578352,11.468263 c 0,0 0.328805,-0.860748 0.74019,-1.6095008 0.411386,-0.7486147 1.437849,-1.5909961 1.437849,-1.5909961 L 18.125382,-1.3210958e-7 23.054003,5.2343645 c 0,0 2.579344,-0.6548479 6.160846,-0.6221193 4.805717,0.040738 9.569039,3.9471782 12.525383,1.2871864 C 43.567371,4.2552688 42.355308,-1.3210958e-7 42.355308,-1.3210958e-7 c 0,0 3.254907,1.39121363210958 4.353869,5.15067893210958 1.272549,4.3613261 -1.806839,6.2727032 -1.806839,6.2727032 l -0.36899,8.016847 -6.160846,-6.272703 c 0,0 -2.218363,-0.456957 -3.490912,-0.830229 -1.274481,-0.375343 -10.454229,-4.7427455 -11.704544,1.079077 -0.810619,3.779945 3.428354,4.965078 5.29775,6.605236 3.597659,3.159759 4.539469,6.48689 4.878217,7.202914 3.188345,0.338609 5.368317,1.021905 5.368317,1.809324 0,1.123958 -4.440592,2.035802 -9.917867,2.035802 -5.477136,0 -9.917729,-0.911844 -9.917729,-2.035802 0,-0.730248 1.873401,-1.370872 4.684607,-1.729781 -0.106885,-0.171377 -0.760352,-1.183201 -1.99451,-2.256202 -1.665706,-1.450276 -3.327407,-2.24391 -4.55756,-3.863492 C 15.94748,19.774696 15.45738,18.442767 15.45738,18.442767 Z m 33.891627,23.397626 c -0.5162,-1.103657 -0.306434,-3.69833 -0.338748,-6.168717 -0.0464,-3.459564 -0.06256,-6.79277 -0.06256,-6.79277 0,-2.476463 -5.957156,-4.598022 -14.112374,-5.332274 l 1.094958,2.343753 c 5.503512,0.726243 9.298785,2.264349 9.298785,4.043155 0,2.478396 -7.37277,4.489754 -16.467865,4.489754 -9.095096,0 -16.467866,-2.009286 -16.467866,-4.489754 0,-1.43412 2.468315,-2.711087 6.309989,-3.533169 L 16.237754,24.417598 C 11.38177,25.435499 8.2478351,27.045 8.2559827,28.852253 c 0.00608,1.168839 0,3.055773 0,4.406207 0,3.343426 0.9962196,3.724845 2.4319963,5.401598 2.855673,3.329202 4.942846,9.505929 4.00504,11.943726 -1.218,3.165835 -4.632131,4.575373 -4.37403,6.541851 0.286409,2.178591 14.086274,0.06532 15.320432,-4.912051 0.356976,-1.4442 -2.198202,-3.594344 -2.506707,-5.213926 -0.308504,-1.61972 0.07457,-1.272963 -0.55459,-3.396454 -0.554591,-1.868568 -2.401754,-2.741606 -1.20792,-3.953393 1.296715,-1.3137 6.019575,4.20224 7.386856,6.134056 1.367282,1.931815 3.061297,6.229755 4.662512,8.534842 3.186273,4.587803 15.584608,3.990126 15.923356,2.370406 0.348967,-1.668605 -4.866064,-4.051164 -6.235417,-5.936027 -1.40153,-1.929743 -1.712106,-2.849734 -2.512783,-5.156893 -0.800538,-2.307158 -2.895858,-3.924807 -2.00252,-4.828502 1.078939,-1.091368 2.710397,1.058776 3.819578,1.682967 1.109182,0.624191 2.36143,0.713953 2.956345,1.589063 0.677634,0.997462 -0.139062,1.899087 1.078938,4.361326 1.478173,2.990454 9.149505,3.533031 10.071153,1.433982 0.986139,-2.243773 -5.543836,-4.518341 -7.177227,-8.00649 z M 8.4112049,42.095317 c -2.0609344,-0.246776 -2.0951821,2.492759 -3.9122402,3.924807 -1.8169882,1.433982 -3.79934636,2.192815 -2.8898368,4.200031 0.4254992,0.940429 2.0892983,0.940429 4.1523042,0.940429 2.0630058,0 3.6157495,-0.4814 4.5898739,-1.558406 1.972277,-2.180663 -0.123043,-7.290604 -1.9401011,-7.508932 z"
     fill="white"
     id="path1"
     style="fill:#bd9e59;fill-opacity:1;stroke-width:1.38095" />
</svg>
