<?xml version="1.0" encoding="UTF-8" standalone="no"?>
<svg
   width="58"
   height="58"
   viewBox="0 0 58 58"
   fill="none"
   version="1.1"
   id="svg4"
   sodipodi:docname="GoldenOx_white_1741766855-GoldenOx.svg"
   inkscape:version="1.4 (86a8ad7, 2024-10-11)"
   xmlns:inkscape="http://www.inkscape.org/namespaces/inkscape"
   xmlns:sodipodi="http://sodipodi.sourceforge.net/DTD/sodipodi-0.dtd"
   xmlns="http://www.w3.org/2000/svg"
   xmlns:svg="http://www.w3.org/2000/svg">
  <defs
     id="defs4" />
  <sodipodi:namedview
     id="namedview4"
     pagecolor="#ffffff"
     bordercolor="#000000"
     borderopacity="0.25"
     inkscape:showpageshadow="2"
     inkscape:pageopacity="0.0"
     inkscape:pagecheckerboard="0"
     inkscape:deskcolor="#d1d1d1"
     inkscape:zoom="2.8965517"
     inkscape:cx="28.654762"
     inkscape:cy="28.827381"
     inkscape:window-width="1366"
     inkscape:window-height="705"
     inkscape:window-x="-8"
     inkscape:window-y="-8"
     inkscape:window-maximized="1"
     inkscape:current-layer="svg4" />
  <g
     id="g4"
     transform="matrix(1.2083333,0,0,1.2083333,-6.645843,-6.0416657)"
     style="fill:#bd9e59;fill-opacity:1">
    <path
       d="m 26.9794,29.3615 6.6122,6.5662 h 0.0173 L 29.5,40.0079 22.9568,33.5104 c 0,0 -4.3678,-4.3203 -8.9946,-8.9835 C 9.33534,19.8466 13.6859,14.0863 18.7962,11.5147 24.2862,8.73738 25.4429,5 25.4429,5 c 1.8643,4.01656 -0.7396,7.199 -2.9119,9.854 -1.2676,1.5492 -2.3882,2.9188 -2.3882,4.1697 0,3.3945 6.0597,9.5492 6.8366,10.3378 z"
       fill="#ffffff"
       id="path1"
       style="fill:#bd9e59;fill-opacity:1" />
    <path
       d="m 31.658,29.1729 c 0,0 7.1992,-6.5147 7.1992,-10.1492 0,-1.2592 -1.1242,-2.6329 -2.3944,-4.1848 C 34.2918,12.1862 31.6946,9.01276 33.5571,5 c 0,0 1.1567,3.73738 6.6467,6.5147 5.1103,2.5716 9.4609,8.3319 4.834,13.0122 -4.6268,4.6632 -8.9947,8.9835 -8.9947,8.9835 z"
       fill="#ffffff"
       id="path2"
       style="fill:#bd9e59;fill-opacity:1" />
    <path
       d="M 13.0632,36.6858 17.1643,32.6119 33.5987,48.9261 29.4976,53 Z"
       fill="#ffffff"
       id="path3"
       style="fill:#bd9e59;fill-opacity:1" />
    <path
       d="m 31.9445,42.4287 9.6685,-9.6011 4.1018,4.0732 -9.6685,9.6011 z"
       fill="#ffffff"
       id="path4"
       style="fill:#bd9e59;fill-opacity:1" />
  </g>
</svg>
