<?xml version="1.0" encoding="UTF-8" standalone="no"?>
<svg
   width="58"
   height="58"
   viewBox="0 0 58 58"
   fill="none"
   version="1.1"
   id="svg1"
   sodipodi:docname="Multistriker_white_1720774350-Multistriker.svg"
   inkscape:version="1.3.2 (091e20e, 2023-11-25, custom)"
   xmlns:inkscape="http://www.inkscape.org/namespaces/inkscape"
   xmlns:sodipodi="http://sodipodi.sourceforge.net/DTD/sodipodi-0.dtd"
   xmlns="http://www.w3.org/2000/svg"
   xmlns:svg="http://www.w3.org/2000/svg">
  <defs
     id="defs1" />
  <sodipodi:namedview
     id="namedview1"
     pagecolor="#ffffff"
     bordercolor="#000000"
     borderopacity="0.25"
     inkscape:showpageshadow="2"
     inkscape:pageopacity="0.0"
     inkscape:pagecheckerboard="0"
     inkscape:deskcolor="#d1d1d1"
     showgrid="false"
     inkscape:zoom="4.3448276"
     inkscape:cx="29"
     inkscape:cy="28.884921"
     inkscape:window-width="1366"
     inkscape:window-height="705"
     inkscape:window-x="-8"
     inkscape:window-y="-8"
     inkscape:window-maximized="1"
     inkscape:current-layer="svg1" />
  <path
     fill-rule="evenodd"
     clip-rule="evenodd"
     d="m 40.64149,4.2795092 c 4.5631,-1.81858 10.2239,0.29604 13.1511,4.56759 h -0.043 c 6.3495,9.2620998 -0.6673,21.8440998 -9.9871,22.4149998 -9.3198,0.5498 -11.9673,1.9666 -13.3018,7.5492 -1.7003,7.0206 -5.5531,9.4947 -10.6112,12.7512 -0.3874,0.2538 -0.7964,0.5076 -1.2053,0.7825 -0.8825,0.5498 -1.0117,0.6343 -1.313,0.7824 -0.1937,0.1057 -0.4735,0.2537 -1.1192,0.6344 -1.2915,0.7189 -2.6905,1.015 -3.8743,-0.2961 -1.1193,-1.2476 -0.3444,-2.1146 0.4089,-2.9393 0.1292,-0.148 0.2583,-0.2961 0.3874,-0.4229 1.8511,-2.1781 3.0134,-3.8698 4.2618,-5.6672 0.8824,-1.2688 1.7864,-2.601 3.0348,-4.2082 1.1193,-1.4802 1.8296,-3.2353 2.5614,-4.9905 0.2367,-0.5921 0.495,-1.2053 0.7533,-1.7762 3.0349,-6.788 7.8347,-10.6789 15.6478,-10.3829 3.3578,0.1269 6.8231,-1.2476 7.9854,-4.6099 0.452,-1.3533 0.4735,-4.2504 -1.5497,-4.927 -1.4421,-0.4864 -3.2932,-0.1903 -3.5515,2.4106 -0.2582,2.601 -1.1838,4.3985 -3.6805,4.6945 -2.5614,0.2326 -4.3479,-1.0784 -4.9075,-3.5949 -1.2053,-5.6037 1.4852,-10.5096398 6.9737,-12.7088498 z m -26.3452,23.3242898 5.1873,5.1174 c 0,0 0.0646,-0.148 0.0861,-0.2114 0.1076,-0.2538 0.1937,-0.5075 0.3228,-0.7402 2.1955,-4.927 5.2303,-8.4373 9.0616,-10.5519 l -4.068,-3.9967 4.3908,-4.335 c 0.0646,-0.6555 0.1722,-1.2899 0.3229,-1.9454 0.1291,-2.0300998 -0.3444,-5.1385598 -3.8958,-5.9844098 0.2367,3.55261 -3.7452,8.7334098 -6.5002,11.8842098 l -6.8877,-6.788 -0.043,-3.7851398 c 0,0 -4.4769697,-2.8336 -8.9108797,0.19031 -3.0779131,4.3561298 -0.19372,8.7545298 -0.19372,8.7545298 l 3.85277,0.0423 6.8876297,6.788 c -3.1855,2.7067 -8.4803897,6.6187 -12.0963997,6.3861 1.356,5.35 8.0284,3.5526 8.0284,3.5526 l 4.4338997,-4.3773 z m 29.1003,7.803 5.467,5.3712 1.5282,11.9053 -12.0964,-1.5014 -5.8975,-5.7941 c 0.8825,-1.5859 1.6143,-3.4468 2.1309,-5.646 0.6887,-2.8125 0.947,-3.8063 8.8463,-4.335 z"
     fill="white"
     id="path1"
     style="fill:#bd9e59;fill-opacity:1" />
</svg>
