<?xml version="1.0" encoding="UTF-8" standalone="no"?>
<svg
   width="58"
   height="58"
   viewBox="0 0 58 58"
   fill="none"
   version="1.1"
   id="svg1"
   sodipodi:docname="Overlord_white_1741766519-Overlord.svg"
   inkscape:version="1.4 (86a8ad7, 2024-10-11)"
   xmlns:inkscape="http://www.inkscape.org/namespaces/inkscape"
   xmlns:sodipodi="http://sodipodi.sourceforge.net/DTD/sodipodi-0.dtd"
   xmlns="http://www.w3.org/2000/svg"
   xmlns:svg="http://www.w3.org/2000/svg">
  <defs
     id="defs1" />
  <sodipodi:namedview
     id="namedview1"
     pagecolor="#ffffff"
     bordercolor="#000000"
     borderopacity="0.25"
     inkscape:showpageshadow="2"
     inkscape:pageopacity="0.0"
     inkscape:pagecheckerboard="0"
     inkscape:deskcolor="#d1d1d1"
     inkscape:zoom="2.8965517"
     inkscape:cx="28.654762"
     inkscape:cy="28.827381"
     inkscape:window-width="1366"
     inkscape:window-height="705"
     inkscape:window-x="-8"
     inkscape:window-y="-8"
     inkscape:window-maximized="1"
     inkscape:current-layer="svg1" />
  <path
     d="m 12.888918,56.681818 -2.148241,-10.646822 8.5927,-2.129391 -4.29635,-8.517432 8.592568,-4.258782 -4.296218,-6.388173 8.592568,-10.646822 8.592569,10.646822 -4.29635,6.388173 8.5927,4.258782 -4.29635,8.517432 8.592568,2.129391 -2.148109,10.646822 6.444459,-1.724841 L 58,48.568937 V 43.905605 L 53.70365,39.646823 50.22365,27.147427 58,16.223787 42.254055,5.129705 C 39.182164,2.8300311 33.919323,1.318182 27.925945,1.318182 c -8.764459,0 -15.960809,3.236664 -17.034863,7.452736 L 0,46.034996 6.444459,54.552427 Z m 38.645137,-39.201672 -3.54446,4.109695 c -1.288918,-0.702723 -2.814054,-1.873927 -3.565945,-3.769077 -0.622973,-1.5544 -0.472568,-3.598637 -0.04297,-5.472432 l 7.174864,5.131814 z"
     fill="white"
     id="path1"
     style="fill:#bd9e59;fill-opacity:1;stroke-width:1.31818" />
</svg>
