<svg xmlns="http://www.w3.org/2000/svg" width="58" height="58" fill="none"><rect id="backgroundrect" width="100%" height="100%" x="0" y="0" fill="none" stroke="none" class="" style=""/>




<g class="currentLayer" style=""><title>Layer 1</title><g class=""><path d="M38.6591,43.85746971435547 L23.1624,35.670569714355466 C22.0712,35.09406971435547 21.6538,33.73766971435547 22.2312,32.64466971435547 C22.8087,31.55166971435547 24.1644,31.13196971435547 25.2556,31.70846971435547 L40.7447,39.89136971435547 C41.8359,40.467869714355466 42.2533,41.82426971435547 41.6759,42.91726971435547 C41.1061,44.01426971435547 39.7427,44.429969714355465 38.6591,43.85746971435547 z" fill="#B89E63" id="svg_1" class=""/><path d="M29.3398,48.85646971435547 C29.3398,48.85646971435547 30.972,50.75756971435547 29.0882,52.28666971435547 C27.2045,53.81576971435547 27.049,53.90826971435547 25.0716,52.84426971435547 L22.6164,51.54716971435547 C20.5097,50.43416971435547 19.5114,48.15916971435547 20.3936,46.48936971435547 L20.9269,45.479869714355466 L28.9027,30.38276971435547 L31.5733,25.32766971435547 L32.7763,23.05056971435547 L35.447,17.99546971435547 L42.6047,4.446769714355469 C62.2322,24.59276971435547 38.3949,39.18386971435547 38.3949,39.18386971435547 L36.5222,42.728569714355466 L34.5292,41.67566971435547 L29.3398,48.85646971435547 z" fill="#B89E63" id="svg_2" class=""/><path d="M25.5,28.184869714355468 L30,20.184869714355468 C18,16.684869714355468 9.5,18.684869714355468 0,25.184869714355468 C10.8,21.184869714355468 21.5,25.51816971435547 25.5,28.184869714355468 z" fill="#B89E63" id="svg_3" class=""/><path d="M27,25.68476971435547 L33.4891,14.37500971435547 C27.0001,8.18483971435547 20.4998,8.184779714355468 9.99992,11.684769714355468 C19.4999,12.684769714355468 25.8704,20.90716971435547 27,25.68476971435547 z" fill="#B89E63" id="svg_4" class=""/></g></g></svg>