<?xml version="1.0" encoding="UTF-8" standalone="no"?>
<svg
   width="58"
   height="58"
   viewBox="0 0 58 58"
   fill="none"
   version="1.1"
   id="svg3"
   sodipodi:docname="SoulKiller_white_1741766835-SoulKiller.svg"
   inkscape:version="1.4 (86a8ad7, 2024-10-11)"
   xmlns:inkscape="http://www.inkscape.org/namespaces/inkscape"
   xmlns:sodipodi="http://sodipodi.sourceforge.net/DTD/sodipodi-0.dtd"
   xmlns="http://www.w3.org/2000/svg"
   xmlns:svg="http://www.w3.org/2000/svg">
  <defs
     id="defs3" />
  <sodipodi:namedview
     id="namedview3"
     pagecolor="#ffffff"
     bordercolor="#000000"
     borderopacity="0.25"
     inkscape:showpageshadow="2"
     inkscape:pageopacity="0.0"
     inkscape:pagecheckerboard="0"
     inkscape:deskcolor="#d1d1d1"
     inkscape:zoom="2.8965517"
     inkscape:cx="28.654762"
     inkscape:cy="28.827381"
     inkscape:window-width="1366"
     inkscape:window-height="705"
     inkscape:window-x="-8"
     inkscape:window-y="-8"
     inkscape:window-maximized="1"
     inkscape:current-layer="svg3" />
  <g
     id="g3"
     transform="matrix(1.3181818,0,0,1.3181818,-9.8863631,-9.2272722)"
     style="fill:#bd9e59;fill-opacity:1">
    <path
       d="M 20.9583,13.7692 H 14.125 v 3.3846 h 6.8333 z"
       fill="#ffffff"
       id="path1"
       style="fill:#bd9e59;fill-opacity:1" />
    <path
       d="M 39.75,45.9231 H 32.9167 L 36.3333,51 h 6.8334 c 0,0 0,-5.0769 -3.4167,-5.0769 z"
       fill="#ffffff"
       id="path2"
       style="fill:#bd9e59;fill-opacity:1" />
    <path
       d="M 46.5833,27.3077 H 29.5 v -3.3846 h 15.375 l -3.4167,-3.3846 -6.2354,-3.08 C 35.9233,16.3923 36.3333,15.14 36.3333,13.7692 36.3333,10.0292 33.2754,7 29.5,7 25.7246,7 22.6667,10.0292 22.6667,13.7692 H 29.5 v 3.3846 h -5.125 l -6.8333,3.3847 -3.4167,3.3846 -3.4167,8.4615 h 6.8334 L 19.25,29 l 3.4167,-1.6923 -1.025,5.0769 H 29.5 v 3.3846 H 9 v 3.3846 h 11.275 l -1.025,5.077 -1.9475,1.2861 C 15.4917,46.7185 14.8596,49.0708 15.8333,51 h 6.8334 L 29.5,42.5385 h 9.9083 L 37.0167,30.6923 h 3.5875 l 4.2708,8.4615 H 50 Z"
       fill="#ffffff"
       id="path3"
       style="fill:#bd9e59;fill-opacity:1" />
  </g>
</svg>
