<?xml version="1.0" encoding="UTF-8" standalone="no"?>
<svg
   width="58"
   height="58"
   viewBox="0 0 58 58"
   fill="none"
   version="1.1"
   id="svg2"
   sodipodi:docname="Bastion_normal_1685072597-Bastion-gray.svg"
   inkscape:version="1.3 (0e150ed6c4, 2023-07-21)"
   xmlns:inkscape="http://www.inkscape.org/namespaces/inkscape"
   xmlns:sodipodi="http://sodipodi.sourceforge.net/DTD/sodipodi-0.dtd"
   xmlns="http://www.w3.org/2000/svg"
   xmlns:svg="http://www.w3.org/2000/svg">
  <defs
     id="defs2" />
  <sodipodi:namedview
     id="namedview2"
     pagecolor="#ffffff"
     bordercolor="#000000"
     borderopacity="0.25"
     inkscape:showpageshadow="2"
     inkscape:pageopacity="0.0"
     inkscape:pagecheckerboard="0"
     inkscape:deskcolor="#d1d1d1"
     showgrid="false"
     inkscape:zoom="4.0689655"
     inkscape:cx="29"
     inkscape:cy="28.877119"
     inkscape:window-width="1366"
     inkscape:window-height="705"
     inkscape:window-x="-8"
     inkscape:window-y="-8"
     inkscape:window-maximized="1"
     inkscape:current-layer="svg2" />
  <mask
     id="mask0_1824_2362"
     style="mask-type:luminance"
     maskUnits="userSpaceOnUse"
     x="7"
     y="9"
     width="44"
     height="42">
    <path
       d="M50.2333 9.19629H7.85425V50.8894H50.2333V9.19629Z"
       fill="white"
       id="path1" />
  </mask>
  <g
     mask="url(#mask0_1824_2362)"
     id="g2"
     style="fill:#bd9e59;fill-opacity:1"
     transform="matrix(1.3586666,0,0,1.3586666,-10.460807,-11.81821)">
    <path
       d="M 50.2333,14.1926 33.8607,9.19629 29.0438,15.8395 24.2229,9.19629 7.85425,14.1926 l 3.85985,16.6758 8.1625,0.8493 -3.3456,7.4925 1.3478,1.26 11.161,10.4233 12.5088,-11.6793 -3.3455,-7.4925 8.1623,-0.8494 3.8599,-16.6757 z m -9.0754,10.5988 -6.3043,0.4745 1.3916,2.4045 -2.524,4.3743 h -2.7753 l 2.7434,5.6941 -4.6415,4.3346 -4.6414,-4.3346 2.7434,-5.6981 h -2.7753 l -2.5241,-4.3703 1.3916,-2.4045 -6.3042,-0.4745 -1.4315,-6.1846 6.0729,-1.8542 3.5609,5.2236 1.3876,-2.4044 h 5.0482 l 1.3876,2.4044 3.5609,-5.2236 6.0731,1.8542 -1.4315,6.1846 z"
       fill="#A0A0A0"
       id="path2"
       style="fill:#bd9e59;fill-opacity:1" />
  </g>
</svg>
