<?xml version="1.0" encoding="UTF-8" standalone="no"?>
<svg
   width="58"
   height="58"
   viewBox="0 0 58 58"
   fill="none"
   version="1.1"
   id="svg5"
   sodipodi:docname="BoomBots_white_1741766743-BoomBots.svg"
   inkscape:version="1.4 (86a8ad7, 2024-10-11)"
   xmlns:inkscape="http://www.inkscape.org/namespaces/inkscape"
   xmlns:sodipodi="http://sodipodi.sourceforge.net/DTD/sodipodi-0.dtd"
   xmlns="http://www.w3.org/2000/svg"
   xmlns:svg="http://www.w3.org/2000/svg">
  <defs
     id="defs5" />
  <sodipodi:namedview
     id="namedview5"
     pagecolor="#ffffff"
     bordercolor="#000000"
     borderopacity="0.25"
     inkscape:showpageshadow="2"
     inkscape:pageopacity="0.0"
     inkscape:pagecheckerboard="0"
     inkscape:deskcolor="#d1d1d1"
     inkscape:zoom="2.8965517"
     inkscape:cx="28.654762"
     inkscape:cy="28.827381"
     inkscape:window-width="1366"
     inkscape:window-height="705"
     inkscape:window-x="-8"
     inkscape:window-y="-8"
     inkscape:window-maximized="1"
     inkscape:current-layer="svg5" />
  <g
     id="g5"
     transform="matrix(1.2083333,0,0,1.2083333,-6.6458323,-6.0416657)"
     style="fill:#bd9e59;fill-opacity:1">
    <path
       d="m 38.9615,29 c 0,2.0915 -0.5834,4.0286 -1.5611,5.6572 L 50,37.5715 43.6923,30.7143 50,22.1429 37.3846,18.7143 34.2308,5 29.5,18.7143 c 5.2196,0 9.4615,4.6114 9.4615,10.2857 z"
       fill="#ffffff"
       id="path1"
       style="fill:#bd9e59;fill-opacity:1" />
    <path
       d="m 32.5907,38.7029 0.0631,12.5657 4.7308,-6.8571 6.3077,1.7142 3.1538,-1.7142 -10.5969,-8.2286 c -1.0092,1.1143 -2.255,1.9886 -3.6585,2.52 z"
       fill="#ffffff"
       id="path2"
       style="fill:#bd9e59;fill-opacity:1" />
    <path
       d="m 21.5996,23.3428 c -0.9777,1.6286 -1.5611,3.5657 -1.5611,5.6572 0,5.6743 4.2419,10.2857 9.4615,10.2857 L 24.7692,53 21.6154,39.2857 9,35.8571 15.3077,27.2857 9,20.4285 Z"
       fill="#ffffff"
       id="path3"
       style="fill:#bd9e59;fill-opacity:1" />
    <path
       d="M 26.4091,19.28 26.3461,6.71425 21.6154,13.5714 15.3077,11.8571 12.1538,13.5714 22.7508,21.8 c 1.0092,-1.1143 2.2549,-1.9885 3.6583,-2.52 z"
       fill="#ffffff"
       id="path4"
       style="fill:#bd9e59;fill-opacity:1" />
    <path
       d="m 27.9231,23.857 c 0,0.9429 0.7096,1.7143 1.5769,1.7143 0.8673,0 1.5769,-0.7714 1.5769,-1.7143 v -1.4742 c 2.7123,0.7714 4.7308,3.4285 4.7308,6.6171 0,3.1886 -2.0185,5.8457 -4.7308,6.6172 v -1.4743 c 0,-0.9429 -0.7096,-1.7143 -1.5769,-1.7143 -0.8673,0 -1.5769,0.7714 -1.5769,1.7143 v 1.4743 c -2.7123,-0.7715 -4.7308,-3.4286 -4.7308,-6.6172 0,-3.1886 2.0185,-5.8457 4.7308,-6.6171 z"
       fill="#ffffff"
       id="path5"
       style="fill:#bd9e59;fill-opacity:1" />
  </g>
</svg>
