<?xml version="1.0" encoding="UTF-8" standalone="no"?>
<svg
   width="58"
   height="58"
   viewBox="0 0 58 58"
   fill="none"
   version="1.1"
   id="svg1"
   sodipodi:docname="Chrono_white_1720774659-Chrono.svg"
   inkscape:version="1.3.2 (091e20e, 2023-11-25, custom)"
   xmlns:inkscape="http://www.inkscape.org/namespaces/inkscape"
   xmlns:sodipodi="http://sodipodi.sourceforge.net/DTD/sodipodi-0.dtd"
   xmlns="http://www.w3.org/2000/svg"
   xmlns:svg="http://www.w3.org/2000/svg">
  <defs
     id="defs1" />
  <sodipodi:namedview
     id="namedview1"
     pagecolor="#ffffff"
     bordercolor="#000000"
     borderopacity="0.25"
     inkscape:showpageshadow="2"
     inkscape:pageopacity="0.0"
     inkscape:pagecheckerboard="0"
     inkscape:deskcolor="#d1d1d1"
     inkscape:zoom="4.3448276"
     inkscape:cx="29"
     inkscape:cy="28.884921"
     inkscape:window-width="1366"
     inkscape:window-height="705"
     inkscape:window-x="-8"
     inkscape:window-y="-8"
     inkscape:window-maximized="1"
     inkscape:current-layer="svg1" />
  <path
     d="m 56.116192,20.3566 c -2.7419,0.2735 -5.2291,2.1877 -5.2291,2.1877 0,0 4.6416,-6.524 1.9976,-15.2943 l -14.336,8.4383 c 2.7027,1.3673 4.4066,3.301 4.4066,5.4497 0,1.3673 -0.7051,2.6174 -1.8606,3.7308 -2.8789,-3.4964 -7.2463,-5.7037 -12.1034,-5.7037 -4.857,0 -9.2244,2.2268 -12.0837,5.7037 -1.1555,-1.0939 -1.8606,-2.3635 -1.8606,-3.7308 0,-2.1682 1.7039,-4.102 4.4066,-5.4497 L 5.0783624,7.25 c -2.66352,8.7508 1.99765,15.2943 1.99765,15.2943 0,0 -2.46768,-1.9337 -5.22913,-2.1877 -0.56795,7.4421 6.07127,10.2939 7.14843,10.1767 -0.41128,0.2149 -1.70387,1.0744 -2.58518,3.7504 1.52761,1.8165 6.1887596,1.8556 6.9329596,1.8361 0.6072,8.1648 7.3835,14.6302 15.6482,14.6302 8.2648,0 15.0607,-6.4459 15.6678,-14.6302 0.7638,0 5.4054,-0.0391 6.933,-1.8361 -0.9009,-2.6565 -2.1739,-3.516 -2.5852,-3.7504 1.0576,0.1368 7.6968,-2.7346 7.1485,-10.1767 h -0.0196 z m -20.7206,23.5568 -9.3224,-4.8051 V 24.986 l 2.9181,-2.93 2.9182,2.93 v 10.5478 l 6.1496,3.1643 1.2534,3.9457 z"
     fill="#ffffff"
     id="path1"
     style="fill:#bd9e59;fill-opacity:1" />
</svg>
