<?xml version="1.0" encoding="UTF-8" standalone="no"?>
<svg
   width="58"
   height="58"
   viewBox="0 0 58 58"
   fill="none"
   version="1.1"
   id="svg5"
   sodipodi:docname="Divinicorp_white_1741766796-Divinicorp.svg"
   inkscape:version="1.4 (86a8ad7, 2024-10-11)"
   xmlns:inkscape="http://www.inkscape.org/namespaces/inkscape"
   xmlns:sodipodi="http://sodipodi.sourceforge.net/DTD/sodipodi-0.dtd"
   xmlns="http://www.w3.org/2000/svg"
   xmlns:svg="http://www.w3.org/2000/svg">
  <defs
     id="defs5" />
  <sodipodi:namedview
     id="namedview5"
     pagecolor="#ffffff"
     bordercolor="#000000"
     borderopacity="0.25"
     inkscape:showpageshadow="2"
     inkscape:pageopacity="0.0"
     inkscape:pagecheckerboard="0"
     inkscape:deskcolor="#d1d1d1"
     inkscape:zoom="2.8965517"
     inkscape:cx="28.654762"
     inkscape:cy="28.827381"
     inkscape:window-width="1366"
     inkscape:window-height="705"
     inkscape:window-x="-8"
     inkscape:window-y="-8"
     inkscape:window-maximized="1"
     inkscape:current-layer="svg5" />
  <g
     id="g5"
     transform="matrix(1.3181848,0,0,1.3181848,-8.6484124,-9.2272933)"
     style="fill:#bd9e59;fill-opacity:1">
    <path
       d="m 11.1632,39.431 c 0.0019,-2.2001 0.8146,-6.2349 7.7182,-15.7768 2.6413,-3.6534 5.2509,-6.8325 6.5162,-8.3192 V 7 C 24.5041,8.0448 23.4968,9.19127 22.4288,10.407 16.2372,17.4547 8,26.8309 8,32.2265 c 0,3.4637 1.24946,6.6902 3.3688,9.3789 -0.1261,-0.7091 -0.205,-1.4339 -0.2056,-2.1744 z"
       fill="#ffffff"
       id="path1"
       style="fill:#bd9e59;fill-opacity:1" />
    <path
       d="m 25.3976,47.6469 v 3.353 c -6.3422,-1.202 -11.0712,-5.9152 -11.0712,-11.5615 0,-4.555 6.8799,-13.8548 11.0712,-19.1057 v 11.3401 c -3.2423,1.8979 -5.5356,6.3264 -5.5356,9.3472 0,3.0209 2.2933,5.5989 5.5356,6.6269 z"
       fill="#ffffff"
       id="path2"
       style="fill:#bd9e59;fill-opacity:1" />
    <path
       d="m 42.7952,39.4384 c 0,-4.555 -6.88,-13.8548 -11.0712,-19.1057 v 11.3401 c 3.2423,1.8979 5.5356,6.3264 5.5356,9.3472 0,3.0209 -2.2933,5.5831 -5.5356,6.6269 v 3.353 c 6.3422,-1.202 11.0712,-5.9152 11.0712,-11.5615 z"
       fill="#ffffff"
       id="path3"
       style="fill:#bd9e59;fill-opacity:1" />
    <path
       d="m 23.816,40.2137 4.7448,6.3106 4.7448,-6.3106 -4.7448,-6.3106 z"
       fill="#ffffff"
       id="path4"
       style="fill:#bd9e59;fill-opacity:1" />
    <path
       d="m 34.6929,10.4071 c 6.1915,7.0476 14.4287,16.4238 14.4287,21.8194 v 0.0158 c 0,3.4637 -1.2495,6.6902 -3.3688,9.3789 0.1265,-0.7117 0.2056,-1.4392 0.2056,-2.1826 0,-2.1984 -0.8066,-6.2315 -7.7182,-15.7844 C 35.5989,20.0008 32.9893,16.8217 31.724,15.335 V 7 c 0.8936,1.0448 1.9008,2.19128 2.9689,3.4071 z"
       fill="#ffffff"
       id="path5"
       style="fill:#bd9e59;fill-opacity:1" />
  </g>
</svg>
