<?xml version="1.0" encoding="utf-8"?>
<!-- Generator: Adobe Illustrator 25.1.0, SVG Export Plug-In . SVG Version: 6.00 Build 0)  -->
<svg version="1.1" id="Layer_1" xmlns="http://www.w3.org/2000/svg" xmlns:xlink="http://www.w3.org/1999/xlink" x="0px" y="0px"
	 viewBox="0 0 24 24" style="enable-background:new 0 0 24 24;" xml:space="preserve">
<style type="text/css">
	.st0{fill:#BD9E59;}
</style>
<g>
	<path class="st0" d="M11.4,22.9c0-3.1-5.4-4.5-5.4-9.9s7.9-5.8,7.9-1.5c0,0.6-1.5,1.7-1.5,0.8c0-1.6-3.5-2.2-3.5,1
		c0,1.9,0.7,3,2.3,4.2C11.4,18.3,11.8,19.8,11.4,22.9z"/>
	<path class="st0" d="M10.5,13.7c0,0,0.6,4.1,4.6,2.5s3.5-6,1.3-8.6S12,6.1,12,2.6c-0.8,0.6-1.6,2.7-0.8,3.7c0.8,1,4.9,3,4,6.4
		S11.3,15.3,10.5,13.7z"/>
</g>
</svg>
