<?xml version="1.0" encoding="UTF-8" standalone="no"?>
<svg
   width="53"
   height="53"
   fill="none"
   style=""
   version="1.1"
   id="svg2"
   sodipodi:docname="Executioner_TFT_icon.svg"
   inkscape:version="1.3 (0e150ed6c4, 2023-07-21)"
   xmlns:inkscape="http://www.inkscape.org/namespaces/inkscape"
   xmlns:sodipodi="http://sodipodi.sourceforge.net/DTD/sodipodi-0.dtd"
   xmlns="http://www.w3.org/2000/svg"
   xmlns:svg="http://www.w3.org/2000/svg">
  <sodipodi:namedview
     id="namedview2"
     pagecolor="#ffffff"
     bordercolor="#000000"
     borderopacity="0.25"
     inkscape:showpageshadow="2"
     inkscape:pageopacity="0.0"
     inkscape:pagecheckerboard="0"
     inkscape:deskcolor="#d1d1d1"
     showgrid="false"
     inkscape:zoom="9.6037736"
     inkscape:cx="26.447937"
     inkscape:cy="26.5"
     inkscape:window-width="1366"
     inkscape:window-height="705"
     inkscape:window-x="-8"
     inkscape:window-y="-8"
     inkscape:window-maximized="1"
     inkscape:current-layer="svg2" />
  <rect
     id="backgroundrect"
     width="100%"
     height="100%"
     x="0"
     y="0"
     fill="none"
     stroke="none"
     class=""
     style="" />
  <defs
     id="defs1">
    <clipPath
       id="clip0">
      <rect
         width="39"
         height="53"
         fill="white"
         id="svg_1" />
    </clipPath>
  </defs>
  <g
     class="currentLayer"
     style="fill:#bd9e59;fill-opacity:1"
     id="g2">
    <title
       id="title1">Layer 1</title>
    <g
       class=""
       id="g1"
       style="fill:#bd9e59;fill-opacity:1">
      <path
         d="M35.927948644828795,16.631091552734375 C34.4613486448288,16.631091552734375 33.0750486448288,16.946591552734375 31.8180486448288,17.498791552734374 L28.127048644828797,38.989791552734374 L24.106248644828796,44.97169155273438 L21.694648644828796,17.739791552734374 C20.308348644828797,17.034291552734373 18.7392486448288,16.635491552734376 17.072048644828797,16.635491552734376 C11.513388644828797,16.631091552734375 7.002248644828796,21.065991552734374 7.002248644828796,26.535191552734375 C7.002248644828796,28.774491552734375 7.755591644828797,30.834191552734374 9.030478644828797,32.49509155273437 L9.048308644828797,32.51709155273438 C9.239988644828797,32.762491552734375 9.440588644828797,32.99909155273438 9.650098644828796,33.226991552734376 L26.424248644828797,53.000091552734375 L43.3989486448288,33.17439155273438 C45.01264864482879,31.417091552734377 45.997748644828796,29.090091552734375 45.997748644828796,26.535191552734375 C46.002248644828796,21.065991552734374 41.4911486448288,16.631091552734375 35.927948644828795,16.631091552734375 z"
         fill="#B89E63"
         id="svg_3"
         class=""
         style="fill:#bd9e59;fill-opacity:1" />
      <path
         d="M26.500048644828798,23.033691552734375 C27.449548644828795,20.566391552734373 29.379648644828798,18.572491552734377 31.8135486448288,17.498791552734374 L32.263748644828794,13.602891552734375 L34.862648644828795,13.633591552734375 C35.7407486448288,13.642291552734376 36.45844864482879,12.914891552734375 36.4673486448288,12.012091552734375 L36.471848644828796,11.337191552734375 C36.4762486448288,10.434491552734375 35.7630486448288,9.685091552734375 34.8893486448288,9.676321552734375 L30.222148644828795,9.619351552734376 L30.262348644828798,3.7996115527343752 C30.275648644828795,1.735531552734375 28.644148644828796,0.022033352734375067 26.638248644828796,0.00012167413437500032 C24.632248644828795,-0.021790047265625077 22.982948644828795,1.647881552734375 22.974048644828798,3.7119615527343752 L22.933948644828796,9.531711552734375 L18.137448644828794,9.474741552734375 C17.259348644828798,9.465971552734375 16.541638644828797,10.193391552734376 16.532728644828797,11.096191552734375 L16.5282686448288,11.771091552734376 C16.523808644828794,12.673891552734375 17.237048644828796,13.423191552734375 18.110748644828796,13.431991552734376 L21.431648644828798,13.471391552734374 L21.699148644828796,17.735491552734373 C23.892348644828797,18.852891552734373 25.617448644828798,20.737391552734376 26.500048644828798,23.033691552734375 z"
         fill="#B89E63"
         id="svg_4"
         class=""
         style="fill:#bd9e59;fill-opacity:1" />
    </g>
  </g>
</svg>
