<?xml version="1.0" encoding="UTF-8" standalone="no"?>
<svg
   width="58"
   height="58"
   viewBox="0 0 58 58"
   fill="none"
   version="1.1"
   id="svg1"
   sodipodi:docname="Hunter_white_1720774264-Hunter.svg"
   inkscape:version="1.3.2 (091e20e, 2023-11-25, custom)"
   xmlns:inkscape="http://www.inkscape.org/namespaces/inkscape"
   xmlns:sodipodi="http://sodipodi.sourceforge.net/DTD/sodipodi-0.dtd"
   xmlns="http://www.w3.org/2000/svg"
   xmlns:svg="http://www.w3.org/2000/svg">
  <defs
     id="defs1" />
  <sodipodi:namedview
     id="namedview1"
     pagecolor="#ffffff"
     bordercolor="#000000"
     borderopacity="0.25"
     inkscape:showpageshadow="2"
     inkscape:pageopacity="0.0"
     inkscape:pagecheckerboard="0"
     inkscape:deskcolor="#d1d1d1"
     showgrid="false"
     inkscape:zoom="4.3448276"
     inkscape:cx="29"
     inkscape:cy="28.884921"
     inkscape:window-width="1366"
     inkscape:window-height="705"
     inkscape:window-x="-8"
     inkscape:window-y="-8"
     inkscape:window-maximized="1"
     inkscape:current-layer="svg1" />
  <path
     fill-rule="evenodd"
     clip-rule="evenodd"
     d="m 15.992001,26.912599 3.471,-9.5395 9.5555,-3.4727 v -5.81572 l 4.9137,-4.91619 c -9.1374,-2.88695002 -18.8602,-1.19243 -25.4048001,5.35551 -6.54461,6.5479 -8.238259,16.2757 -5.37369,25.3968 l 7.0254901,-7.0082 z m 38.8495,-2.8242 -4.9137,4.9162 h -5.8128 l -3.4709,9.5395 -9.5347,3.4727 v 5.7949 l -7.0046,7.0291 c 9.1165,2.866 18.8393,1.1924 25.3839,-5.3555 6.5446,-6.548 8.2173,-16.2758 5.3528,-25.4178 z m -9.0956,-11.7988 -8.3637,23.0119 -14.9292,5.4183 -7.1092,9.9579 c -0.6063,0.8577 -1.5264,1.4644 -2.5718,1.6736 l -8.8446401,1.7782 1.75638,-8.8491 c 0.20909,-1.046 0.81546,-1.9665 1.67274,-2.5941 l 9.9528201,-7.0919 5.4364,-14.9368 z m -10.4964,10.4809 -7.611,2.7823 -2.7809,7.6149 7.6109,-2.7823 z"
     fill="#ffffff"
     id="path1"
     style="fill:#bd9e59;fill-opacity:1" />
</svg>
