<?xml version="1.0" encoding="utf-8"?>
<!-- Generator: Adobe Illustrator 25.1.0, SVG Export Plug-In . SVG Version: 6.00 Build 0)  -->
<svg version="1.1" id="Layer_1" xmlns="http://www.w3.org/2000/svg" xmlns:xlink="http://www.w3.org/1999/xlink" x="0px" y="0px"
	 viewBox="0 0 24 24" style="enable-background:new 0 0 24 24;" xml:space="preserve">
<style type="text/css">
	.st0{fill:#BD9E59;}
</style>
<path class="st0" d="M17.8,12.5l4.2-4.5l-6.3-0.5l1.1,1l-1,0.4C15.4,8.4,15,8,14.7,7.6c-0.4-0.4-0.8-0.8-1.3-1.1
	C13,6.2,12.5,5.9,12,5.7C11,5.3,10,5,9,4.9C8.5,4.9,8,4.8,7.5,4.8C7,4.9,6.5,4.9,6,5c0.9,0.3,1.8,0.7,2.7,1.1c0.5,0.2,1,0.5,1.5,0.7
	L2,14.4l11,3.1c-0.6,1.1-1.4,2.2-2.4,3.3c1.9-0.7,3.6-2,4.8-3.8c0.3-0.4,0.5-1,0.7-1.5c0.1-0.3,0.2-0.5,0.3-0.8
	c0-0.1,0.1-0.3,0.1-0.4l0.1-0.4l0.1-0.4c0-0.1,0-0.3,0-0.4c0-0.3,0-0.6,0-0.8l-0.1-0.8c0,0,0,0,0-0.1l1.1-0.3L17.8,12.5z M11.1,7.4
	c0.7,0.5,1.4,1.1,1.9,1.7c0.1,0.2,0.3,0.4,0.4,0.6l-7.8,2.9L11.1,7.4C11.1,7.4,11.1,7.4,11.1,7.4z M14.2,12.4l0,0.6
	c0,0.1,0,0.2,0,0.3c0,0.1,0,0.2,0,0.3l0,0.3c0,0.1,0,0.2,0,0.3c0,0.2-0.1,0.4-0.1,0.6c-0.1,0.4-0.2,0.8-0.4,1.2
	c-0.1,0.2-0.1,0.3-0.2,0.5l-7.5-2.2l8.2-2.4L14.2,12.4z"/>
</svg>
