<?xml version="1.0" encoding="UTF-8" standalone="no"?>
<svg
   width="58"
   height="58"
   viewBox="0 0 58 58"
   fill="none"
   version="1.1"
   id="svg7"
   sodipodi:docname="Shurima_normal_1685076576-Shurima-gray.svg"
   inkscape:version="1.3 (0e150ed6c4, 2023-07-21)"
   xmlns:inkscape="http://www.inkscape.org/namespaces/inkscape"
   xmlns:sodipodi="http://sodipodi.sourceforge.net/DTD/sodipodi-0.dtd"
   xmlns="http://www.w3.org/2000/svg"
   xmlns:svg="http://www.w3.org/2000/svg">
  <defs
     id="defs7" />
  <sodipodi:namedview
     id="namedview7"
     pagecolor="#ffffff"
     bordercolor="#000000"
     borderopacity="0.25"
     inkscape:showpageshadow="2"
     inkscape:pageopacity="0.0"
     inkscape:pagecheckerboard="0"
     inkscape:deskcolor="#d1d1d1"
     showgrid="false"
     inkscape:zoom="4.0689655"
     inkscape:cx="29"
     inkscape:cy="28.877119"
     inkscape:window-width="1366"
     inkscape:window-height="705"
     inkscape:window-x="-8"
     inkscape:window-y="-8"
     inkscape:window-maximized="1"
     inkscape:current-layer="svg7" />
  <mask
     id="mask0_1824_2308"
     style="mask-type:luminance"
     maskUnits="userSpaceOnUse"
     x="5"
     y="5"
     width="48"
     height="48">
    <path
       d="M53 5H5V53H53V5Z"
       fill="white"
       id="path1" />
  </mask>
  <g
     mask="url(#mask0_1824_2308)"
     id="g7"
     style="fill:#bd9e59;fill-opacity:1"
     transform="matrix(1.2002553,0,0,1.2002553,-5.7697757,-5.5873369)">
    <path
       d="m 30.4534,27.3428 c -0.4889,0.0589 -0.9824,0.0905 -1.4848,0.0905 -0.5025,0 -1.0004,-0.0316 -1.4849,-0.0905 l -4.1451,5.3163 5.63,19.9742 5.6299,-19.9742 z"
       fill="#A0A0A0"
       id="path2"
       style="fill:#bd9e59;fill-opacity:1" />
    <path
       d="m 19.8666,23.8829 h -7.4333 c 1.938,3.4823 4.9212,6.2944 8.5189,7.997 l 2.5256,-5.4611 c -1.3457,-0.6385 -2.5659,-1.4989 -3.6112,-2.5404 z"
       fill="#A0A0A0"
       id="path3"
       style="fill:#bd9e59;fill-opacity:1" />
    <path
       d="m 38.0707,23.8829 h 7.4333 c -1.938,3.4823 -4.9211,6.2944 -8.5189,7.997 l -2.5256,-5.4611 c 1.3458,-0.6385 2.5659,-1.4989 3.6112,-2.5404 z"
       fill="#A0A0A0"
       id="path4"
       style="fill:#bd9e59;fill-opacity:1" />
    <path
       d="m 41.9197,14.4238 c 0.1032,2.0061 -0.4127,3.8128 -0.96,5.1442 l 5.4549,2.4543 6.5227,-6.7335 v -0.865 z"
       fill="#A0A0A0"
       id="path5"
       style="fill:#bd9e59;fill-opacity:1" />
    <path
       d="m 16.0176,14.4238 c -0.1032,2.0061 0.4127,3.8128 0.96,5.1442 L 11.5226,22.0223 5,15.2888 v -0.865 z"
       fill="#A0A0A0"
       id="path6"
       style="fill:#bd9e59;fill-opacity:1" />
    <path
       d="m 28.9685,9.80906 c 2.5884,0 4.6968,2.12834 4.6968,4.74114 0,2.6128 -2.1084,4.7412 -4.6968,4.7412 -2.5884,0 -4.6968,-2.1284 -4.6968,-4.7412 0,-2.6128 2.1084,-4.74114 4.6968,-4.74114 z M 28.9685,5 c -5.2173,0 -9.4609,4.28378 -9.4609,9.5502 0,5.2664 4.2436,9.5502 9.4609,9.5502 5.2172,0 9.4609,-4.2838 9.4609,-9.5502 C 38.4294,9.28378 34.1857,5 28.9685,5 Z"
       fill="#A0A0A0"
       id="path7"
       style="fill:#bd9e59;fill-opacity:1" />
  </g>
</svg>
