<?xml version="1.0" encoding="UTF-8" standalone="no"?>
<svg
   width="58"
   height="58"
   viewBox="0 0 58 58"
   fill="none"
   version="1.1"
   id="svg2"
   sodipodi:docname="Syndicate_white_1741766730-Syndicate.svg"
   inkscape:version="1.4 (86a8ad7, 2024-10-11)"
   xmlns:inkscape="http://www.inkscape.org/namespaces/inkscape"
   xmlns:sodipodi="http://sodipodi.sourceforge.net/DTD/sodipodi-0.dtd"
   xmlns="http://www.w3.org/2000/svg"
   xmlns:svg="http://www.w3.org/2000/svg">
  <defs
     id="defs2" />
  <sodipodi:namedview
     id="namedview2"
     pagecolor="#ffffff"
     bordercolor="#000000"
     borderopacity="0.25"
     inkscape:showpageshadow="2"
     inkscape:pageopacity="0.0"
     inkscape:pagecheckerboard="0"
     inkscape:deskcolor="#d1d1d1"
     inkscape:zoom="2.8965517"
     inkscape:cx="28.654762"
     inkscape:cy="28.827381"
     inkscape:window-width="1366"
     inkscape:window-height="705"
     inkscape:window-x="-8"
     inkscape:window-y="-8"
     inkscape:window-maximized="1"
     inkscape:current-layer="svg2" />
  <g
     id="g2"
     transform="matrix(1.2083333,0,0,1.2083333,-6.0416657,-5.4375029)"
     style="fill:#bd9e59;fill-opacity:1">
    <path
       d="m 53,35.4139 c 0,-2.3531 -4.08,-4.1526 -10.2857,-5.1907 v 3.4604 c -1.4914,1.315 -6.2057,3.4605 -13.7143,3.4605 -7.5086,0 -12.2229,-2.1455 -13.7143,-3.4605 V 30.2232 C 9.08,31.2613 5,33.0608 5,35.4139 c 0,2.3531 3.92571,4.3428 9.9257,5.6059 h -0.0514 c 2.5886,0.6921 13.56,2.2493 12.0686,5.1042 -1.32,2.5261 -8.2286,-0.3115 -8.2286,-0.3115 2.4,4.6544 9.6514,6.1077 13.6628,4.6371 4.0286,-1.4707 1.7658,-4.6371 1.7658,-4.6371 8.3828,4.689 10.2857,-1.7302 10.2857,-1.7302 -3.4115,0 -5.4343,-0.7786 -6.3429,-2.2493 8.7429,-1.0381 14.8972,-3.5123 14.8972,-6.4018 z"
       fill="#ffffff"
       id="path1"
       style="fill:#bd9e59;fill-opacity:1" />
    <path
       d="m 42.7143,26.7627 c 0.0343,-3.0452 -0.72,-12.6998 -3.7372,-15.0529 -2.04,-1.5053 -4.5942,-1.2804 -6.48,-2.28395 C 30.3543,8.2839 29,6 29,6 c -1.2686,3.61618 0.5829,6.7998 3.9771,7.5438 -1.3885,1.3669 -2.5371,2.8376 -3.9771,2.8376 -2.6914,0 -4.3714,-5.1907 -8.5714,-5.1907 -4.2,0 -5.1772,12.1116 -5.1429,15.572 1.4914,1.315 6.2057,3.4605 13.7143,3.4605 7.5086,0 12.2229,-2.1455 13.7143,-3.4605 z"
       fill="#ffffff"
       id="path2"
       style="fill:#bd9e59;fill-opacity:1" />
  </g>
</svg>
