<svg version="1.1" id="Layer_1" xmlns="http://www.w3.org/2000/svg" x="0" y="0" viewBox="0 0 500 500" style="enable-background:new 0 0 500 500" xml:space="preserve"><style>.st0{fill:#bc0000}</style><path class="st0" d="M136 184.4c-1-3.3-2-6.7-3.1-10-5.9-18.6-14.2-37.2-16.9-57.1-1.3-.2-2.6-.4-3.8-.8-36-10.4-44-5.7-55.4 37.3-3.2 12.3-4.7 25.7-4.8 38.7v1.8c5.4 41.9 11.4 83.9 25.6 122.7 10.9 29.9 22.6 72.9 49 87.8-11.1-36.7-16.1-76.2-13.9-115.1 2.1-34.1-2.8-82.7 23.3-105.3zM165.3 113.1c-8 1-17.4 2.2-24.4 3.1-5.6.7-9.2 7.5-7.4 13.9 3.3 12.3 8.5 28.2 12.9 41.4 6.6 19.7 27.3 25.5 40.4 11.3.1-.1.2-.2.3-.4 1.2-1.4-4.4-39.4-9.2-59-1.6-6.7-6.9-11-12.6-10.3zM206.1 111.3h-.2c-8-.9-14.1 8.6-11.5 17.8 2.5 9 5.1 18 7.2 27.2.9 3.9 1.8 7.7 2.6 11.6 1.3 5.8 5.5 10 10.5 10.1 5.2.2 10.3.5 15.5.8 6.4.3 11.7-5.9 11.7-13.6v-21.8c0-4.3-1.8-8.4-4.7-11-10.7-9.3-20.5-19.9-31.1-21.1zM364 184.4c1-3.3 2-6.7 3.1-10 5.9-18.6 14.2-37.2 16.9-57.1 1.3-.2 2.6-.4 3.8-.8 36-10.4 44-5.7 55.4 37.3 3.2 12.3 4.7 25.7 4.8 38.7v1.8c-5.4 41.9-11.4 83.9-25.6 122.7-10.9 29.9-22.6 72.9-49 87.8 11.1-36.7 16.1-76.2 13.9-115.1-2.1-34.1 2.8-82.7-23.3-105.3zM334.7 113.1c8 1 17.4 2.2 24.4 3.1 5.6.7 9.2 7.5 7.4 13.9-3.3 12.3-8.5 28.2-12.9 41.4-6.6 19.7-27.3 25.5-40.4 11.3-.1-.1-.2-.2-.3-.4-1.2-1.4 4.4-39.4 9.2-59 1.6-6.7 6.9-11 12.6-10.3zM293.9 111.3h.2c8-.9 14.1 8.6 11.5 17.8-2.5 9-5.1 18-7.2 27.2-.9 3.9-1.8 7.7-2.6 11.6-1.3 5.8-5.5 10-10.5 10.1-5.2.2-10.3.5-15.5.8-6.4.3-11.7-5.9-11.7-13.6v-21.8c0-4.3 1.8-8.4 4.7-11 10.7-9.3 20.5-19.9 31.1-21.1z"/></svg>