<?xml version="1.0" encoding="UTF-8" standalone="no"?>
<svg
   width="58"
   height="58"
   viewBox="0 0 58 58"
   fill="none"
   version="1.1"
   id="svg1"
   sodipodi:docname="Fated_white_1709372090-fated.svg"
   inkscape:version="1.3 (0e150ed6c4, 2023-07-21)"
   xmlns:inkscape="http://www.inkscape.org/namespaces/inkscape"
   xmlns:sodipodi="http://sodipodi.sourceforge.net/DTD/sodipodi-0.dtd"
   xmlns="http://www.w3.org/2000/svg"
   xmlns:svg="http://www.w3.org/2000/svg">
  <defs
     id="defs1" />
  <sodipodi:namedview
     id="namedview1"
     pagecolor="#ffffff"
     bordercolor="#000000"
     borderopacity="0.25"
     inkscape:showpageshadow="2"
     inkscape:pageopacity="0.0"
     inkscape:pagecheckerboard="0"
     inkscape:deskcolor="#d1d1d1"
     inkscape:zoom="4.0689655"
     inkscape:cx="29"
     inkscape:cy="28.877119"
     inkscape:window-width="1366"
     inkscape:window-height="705"
     inkscape:window-x="-8"
     inkscape:window-y="-8"
     inkscape:window-maximized="1"
     inkscape:current-layer="svg1" />
  <path
     d="M 9.8488175,41.3315 C 8.8239156,40.697885 7.8855893,40.00811 7.0707605,39.257647 1.4149996,34.035245 -1.0185093,27.033234 0.39219145,20.04636 1.5861985,14.134041 5.4368589,9.3334825 10.444802,7.5169518 17.028082,5.127353 23.078328,5.3825529 28.428613,8.276044 c 10.631111,5.745675 14.07447,19.998389 14.21749,20.601731 l -4.221266,0.984018 -4.217023,0.992507 c -0.02589,-0.1102 -2.732505,-11.119443 -9.93115,-14.988041 -3.116155,-1.671672 -6.672119,-1.747355 -10.871741,-0.222804 -2.151799,0.780736 -3.924476,3.1767 -4.5160757,6.106831 -0.6911899,3.425393 0.3294681,6.924206 2.8040867,9.83057 -0.231859,0.834775 -0.459332,1.699682 -0.669546,2.633906 -0.52002,2.31816 -0.895039,4.73591 -1.1766924,7.114616 z M 21.004475,22.079046 c -0.595985,0.622722 -3.774808,4.281671 -5.751192,13.082954 -1.883019,8.392454 -1.84836,18.566922 -1.770414,22.059369 l 7.519484,0.0713 c 0.08445,-3.414501 0.459332,-12.996379 2.093233,-19.209166 1.48876,-5.665748 3.783579,-10.193989 4.901705,-12.207154 L 21.004475,22.076924 Z M 53.842784,10.615706 C 50.020304,5.4237187 44.282126,2.4135203 39.644816,0.707331 37.967627,0.748412 36.429072,1.0381855 35.304297,1.749647 34.108224,2.5043398 33.23483,3.2201443 32.578298,3.8861537 c 1.969736,1.3839358 4.132427,3.1161544 6.483548,5.2850703 0.487624,0.4498535 0.921068,0.884429 1.35437,1.319146 2.396672,1.262843 4.758685,2.962525 6.44026,5.246168 2.190843,2.973418 2.916833,6.491752 2.218994,10.758287 -0.710712,4.346461 -3.868032,7.51241 -9.389488,9.406746 -3.733642,1.280102 -7.91162,1.721326 -11.892398,1.556945 -0.173293,0.566561 -0.350971,1.126614 -0.507005,1.721326 -0.520161,1.978648 -0.901546,4.387627 -1.183199,6.824758 1.061824,0.0778 2.128033,0.138351 3.200608,0.138351 2.669696,0 5.335148,-0.259444 7.918127,-0.730941 v 11.839632 h 8.667883 V 42.670026 c 6.550885,-3.178823 10.685434,-8.323279 11.74075,-14.784758 1.074839,-6.584694 -0.199322,-12.395301 -3.790085,-17.271684 z"
     fill="white"
     id="path1"
     style="fill:#bd9e59;fill-opacity:1;stroke-width:1.41463" />
</svg>
