<?xml version="1.0" encoding="UTF-8" standalone="no"?>
<svg
   width="58"
   height="58"
   viewBox="0 0 58 58"
   fill="none"
   version="1.1"
   id="svg6"
   sodipodi:docname="GodoftheNet_white_1741766590-GodoftheNet.svg"
   inkscape:version="1.4 (86a8ad7, 2024-10-11)"
   xmlns:inkscape="http://www.inkscape.org/namespaces/inkscape"
   xmlns:sodipodi="http://sodipodi.sourceforge.net/DTD/sodipodi-0.dtd"
   xmlns="http://www.w3.org/2000/svg"
   xmlns:svg="http://www.w3.org/2000/svg">
  <defs
     id="defs6" />
  <sodipodi:namedview
     id="namedview6"
     pagecolor="#ffffff"
     bordercolor="#000000"
     borderopacity="0.25"
     inkscape:showpageshadow="2"
     inkscape:pageopacity="0.0"
     inkscape:pagecheckerboard="0"
     inkscape:deskcolor="#d1d1d1"
     inkscape:zoom="2.8965517"
     inkscape:cx="28.654762"
     inkscape:cy="28.827381"
     inkscape:window-width="1366"
     inkscape:window-height="705"
     inkscape:window-x="-8"
     inkscape:window-y="-8"
     inkscape:window-maximized="1"
     inkscape:current-layer="svg6" />
  <g
     id="g6"
     transform="matrix(1.2608696,0,0,1.2608696,-8.1956532,-7.5652184)"
     style="fill:#bd9e59;fill-opacity:1">
    <path
       fill-rule="evenodd"
       clip-rule="evenodd"
       d="M 32.8077,14.2143 V 17.5 c 4.7631,0.8872 8.2692,3.3022 8.2692,6.5715 l -6.6981,4.8464 5.0443,5.0107 -3.3077,3.2857 -18.1923,-13.1428 c 0,-3.2693 3.5061,-5.6843 8.2692,-6.5715 V 14.2143 L 22.8846,10.9286 29.5,6 36.1154,10.9286 Z M 26.1592,22.4286 29.5,25.7472 32.8408,22.4286 29.5,19.11 Z"
       fill="#ffffff"
       id="path1"
       style="fill:#bd9e59;fill-opacity:1" />
    <path
       d="M 12.9615,14.2143 8,17.5 v 16.4286 l 4.9615,-3.2857 z"
       fill="#ffffff"
       id="path2"
       style="fill:#bd9e59;fill-opacity:1" />
    <path
       d="M 46.0385,30.6429 51,33.9286 V 17.5 l -4.9615,-3.2857 z"
       fill="#ffffff"
       id="path3"
       style="fill:#bd9e59;fill-opacity:1" />
    <path
       d="M 36.1154,42.1428 29.5,52 22.8846,42.1428 26.1923,40.5 19.5769,33.9285 22.1404,31.3821 Z"
       fill="#ffffff"
       id="path4"
       style="fill:#bd9e59;fill-opacity:1" />
    <path
       d="m 46.0385,45.4286 -4.9616,-3.2857 v -9.8571 l 4.9616,3.2857 z"
       fill="#ffffff"
       id="path5"
       style="fill:#bd9e59;fill-opacity:1" />
    <path
       d="m 17.9231,42.1429 -4.9616,3.2857 v -9.8571 l 4.9616,-3.2857 z"
       fill="#ffffff"
       id="path6"
       style="fill:#bd9e59;fill-opacity:1" />
  </g>
</svg>
