<?xml version="1.0" encoding="UTF-8" standalone="no"?>
<svg
   width="58"
   height="58"
   viewBox="0 0 58 58"
   fill="none"
   version="1.1"
   id="svg5"
   sodipodi:docname="Invoker_normal_1685072460-Invoker-gray.svg"
   inkscape:version="1.3 (0e150ed6c4, 2023-07-21)"
   xmlns:inkscape="http://www.inkscape.org/namespaces/inkscape"
   xmlns:sodipodi="http://sodipodi.sourceforge.net/DTD/sodipodi-0.dtd"
   xmlns="http://www.w3.org/2000/svg"
   xmlns:svg="http://www.w3.org/2000/svg">
  <defs
     id="defs5" />
  <sodipodi:namedview
     id="namedview5"
     pagecolor="#ffffff"
     bordercolor="#000000"
     borderopacity="0.25"
     inkscape:showpageshadow="2"
     inkscape:pageopacity="0.0"
     inkscape:pagecheckerboard="0"
     inkscape:deskcolor="#d1d1d1"
     inkscape:zoom="4.0689655"
     inkscape:cx="29"
     inkscape:cy="28.877119"
     inkscape:window-width="1366"
     inkscape:window-height="705"
     inkscape:window-x="-8"
     inkscape:window-y="-8"
     inkscape:window-maximized="1"
     inkscape:current-layer="svg5" />
  <mask
     id="mask0_1824_2284"
     style="mask-type:luminance"
     maskUnits="userSpaceOnUse"
     x="7"
     y="7"
     width="44"
     height="44">
    <path
       d="M50.357 7.854H7.85425V50.3567H50.357V7.854Z"
       fill="white"
       id="path1" />
  </mask>
  <g
     mask="url(#mask0_1824_2284)"
     id="g5"
     style="fill:#bd9e59;fill-opacity:1"
     transform="matrix(1.355277,0,0,1.355277,-10.446184,-10.445676)">
    <path
       d="m 35.3041,18.5922 c -1.8183,-1.0766 -3.9357,-1.6986 -6.2006,-1.6986 l 2.9508,5.1119 4.6693,8.0867 2.9508,5.112 c 1.0408,-1.7944 1.6389,-3.8799 1.6389,-6.1009 0,-0.0359 0,-0.0718 0,-0.1077 -0.0399,-4.4261 -2.4444,-8.298 -6.0092,-10.4074 z"
       fill="#A0A0A0"
       id="path2"
       style="fill:#bd9e59;fill-opacity:1" />
    <path
       d="m 16.8979,28.9995 c 0,0.0359 0,0.0718 0,0.1077 0,2.221 0.5982,4.3025 1.6389,6.1009 l 2.9508,-5.112 4.6693,-8.0867 2.9508,-5.1119 c -2.2609,0 -4.3823,0.622 -6.2006,1.6986 -3.5648,2.1094 -5.9693,5.9813 -6.0092,10.4074 z"
       fill="#A0A0A0"
       id="path3"
       style="fill:#bd9e59;fill-opacity:1" />
    <path
       d="m 29.1036,7.854 c -11.7152,0 -21.24935,9.5341 -21.24935,21.2494 0,3.8639 1.04074,7.4885 2.85105,10.6147 0.8294,1.4275 1.8143,2.7514 2.9428,3.9477 l 2.3885,-4.1351 C 14.948,38.171 14.0668,36.6398 13.4447,34.981 c -0.6898,-1.8303 -1.0686,-3.8081 -1.0686,-5.8776 0,-8.29 6.065,-15.1884 13.9881,-16.5043 0.8932,-0.1475 1.8064,-0.2273 2.7434,-0.2273 0.9371,0 1.8502,0.0798 2.7434,0.2273 7.9272,1.3119 13.988,8.2103 13.988,16.5043 0,2.0695 -0.3786,4.0473 -1.0686,5.8776 -0.6259,1.6588 -1.5031,3.19 -2.5918,4.5497 l 2.3884,4.1351 c 1.1246,-1.1922 2.1134,-2.5162 2.9427,-3.9477 C 49.3202,36.5919 50.361,32.9673 50.361,29.1034 50.357,17.3881 40.8228,7.854 29.1036,7.854 Z"
       fill="#A0A0A0"
       id="path4"
       style="fill:#bd9e59;fill-opacity:1" />
    <path
       d="m 29.1036,25.9331 -7.0459,12.2057 c -3.1023,5.3753 0.7058,12.1778 6.9143,12.2177 0.0439,0 0.0878,0 0.1316,0 0.0439,0 0.0877,0 0.1316,0 6.2085,-0.0399 10.0166,-6.8424 6.9143,-12.2177 z"
       fill="#A0A0A0"
       id="path5"
       style="fill:#bd9e59;fill-opacity:1" />
  </g>
</svg>
