<?xml version="1.0" encoding="UTF-8" standalone="no"?>
<svg
   width="58"
   height="58"
   viewBox="0 0 58 58"
   fill="none"
   version="1.1"
   id="svg7"
   sodipodi:docname="Marksman_white_1741766963-Marksman.svg"
   inkscape:version="1.4 (86a8ad7, 2024-10-11)"
   xmlns:inkscape="http://www.inkscape.org/namespaces/inkscape"
   xmlns:sodipodi="http://sodipodi.sourceforge.net/DTD/sodipodi-0.dtd"
   xmlns="http://www.w3.org/2000/svg"
   xmlns:svg="http://www.w3.org/2000/svg">
  <defs
     id="defs7" />
  <sodipodi:namedview
     id="namedview7"
     pagecolor="#ffffff"
     bordercolor="#000000"
     borderopacity="0.25"
     inkscape:showpageshadow="2"
     inkscape:pageopacity="0.0"
     inkscape:pagecheckerboard="0"
     inkscape:deskcolor="#d1d1d1"
     inkscape:zoom="2.8965517"
     inkscape:cx="28.654762"
     inkscape:cy="28.827381"
     inkscape:window-width="1366"
     inkscape:window-height="705"
     inkscape:window-x="-8"
     inkscape:window-y="-8"
     inkscape:window-maximized="1"
     inkscape:current-layer="svg7" />
  <g
     id="g7"
     style="fill:#bd9e59;fill-opacity:1"
     transform="matrix(1.2608696,0,0,1.2608696,-7.5652184,-7.5652184)">
    <path
       d="M 29,26.272 22.4892,37.4832 H 35.5108 Z"
       fill="white"
       id="path1"
       style="fill:#bd9e59;fill-opacity:1" />
    <path
       d="M 30.7692,42.2 H 27.2308 V 51 h 3.5384 z"
       fill="white"
       id="path2"
       style="fill:#bd9e59;fill-opacity:1" />
    <path
       d="m 29,7 -8.2446,14.1856 4.6531,2.6752 3.5915,-6.1952 3.5915,6.1952 4.6531,-2.6752 z"
       fill="white"
       id="path3"
       style="fill:#bd9e59;fill-opacity:1" />
    <path
       d="m 14.5473,23.0808 -1.7703,3.0478 7.6594,4.4027 1.7703,-3.0478 z"
       fill="white"
       id="path4"
       style="fill:#bd9e59;fill-opacity:1" />
    <path
       d="M 52,46.6 43.7554,32.4144 39.12,35.072 42.7115,41.2672 H 35.5108 V 46.6 Z"
       fill="white"
       id="path5"
       style="fill:#bd9e59;fill-opacity:1" />
    <path
       d="m 43.4457,23.0672 -7.6594,4.4027 1.7703,3.0478 7.6594,-4.4027 z"
       fill="white"
       id="path6"
       style="fill:#bd9e59;fill-opacity:1" />
    <path
       d="M 6,46.6 H 22.4892 V 41.2672 H 15.2885 L 18.88,35.072 14.2446,32.4144 Z"
       fill="white"
       id="path7"
       style="fill:#bd9e59;fill-opacity:1" />
  </g>
</svg>
