<?xml version="1.0" encoding="UTF-8" standalone="no"?>
<svg
   width="58"
   height="58"
   viewBox="0 0 58 58"
   fill="none"
   version="1.1"
   id="svg4"
   sodipodi:docname="Nitro_white_1741766673-Nitro.svg"
   inkscape:version="1.4 (86a8ad7, 2024-10-11)"
   xmlns:inkscape="http://www.inkscape.org/namespaces/inkscape"
   xmlns:sodipodi="http://sodipodi.sourceforge.net/DTD/sodipodi-0.dtd"
   xmlns="http://www.w3.org/2000/svg"
   xmlns:svg="http://www.w3.org/2000/svg">
  <defs
     id="defs4" />
  <sodipodi:namedview
     id="namedview4"
     pagecolor="#ffffff"
     bordercolor="#000000"
     borderopacity="0.25"
     inkscape:showpageshadow="2"
     inkscape:pageopacity="0.0"
     inkscape:pagecheckerboard="0"
     inkscape:deskcolor="#d1d1d1"
     inkscape:zoom="2.8965517"
     inkscape:cx="28.654762"
     inkscape:cy="28.827381"
     inkscape:window-width="1366"
     inkscape:window-height="705"
     inkscape:window-x="-8"
     inkscape:window-y="-8"
     inkscape:window-maximized="1"
     inkscape:current-layer="svg4" />
  <g
     id="g4"
     style="fill:#bd9e59;fill-opacity:1"
     transform="matrix(1.2608696,0,0,1.2608696,-7.5652184,-7.5652184)">
    <path
       d="m 32.2693,51 c 8.2143,-4.8889 11.5,-9.7778 11.5,-9.7778 v -6.5185 l -6.5714,1.6296 c 0,0 -4.9286,6.5186 -4.9286,14.6667 z"
       fill="white"
       id="path1"
       style="fill:#bd9e59;fill-opacity:1" />
    <path
       d="m 14.1979,34.7037 v 6.5185 c 0,0 3.2857,4.8889 11.5,9.7778 0,-8.1481 -4.9286,-14.6667 -4.9286,-14.6667 z"
       fill="white"
       id="path2"
       style="fill:#bd9e59;fill-opacity:1" />
    <path
       d="M 40.1714,10.8785 C 37.0993,8.46667 33.2221,7 28.9836,7 24.745,7 20.8679,8.46667 17.7957,10.8785 l 11.1879,5.5245 z"
       fill="white"
       id="path3"
       style="fill:#bd9e59;fill-opacity:1" />
    <path
       d="m 47.055,26.5556 v -1.6297 c 0,-2.8518 -0.69,-5.5407 -1.8729,-7.92 0.6408,-1.0266 1.0679,-2.6563 0.2465,-5.0681 L 29,20.037 12.555,11.9378 c -0.8379,2.4118 -0.3943,4.0415 0.2464,5.0681 -1.1993,2.3956 -1.8728,5.0682 -1.8728,7.92 v 1.6297 L 6,31.4444 c 0,5.2312 4.9286,8.1156 4.9286,8.1156 v -4.8889 l 3.2857,-3.2267 8.2143,1.6297 6.5714,9.7778 6.5714,-9.7778 8.2143,-1.6297 3.2857,3.2267 V 39.56 c 0,0 4.9286,-2.8844 4.9286,-8.1156 l -4.9286,-4.8888 z m -18.0714,4.8888 c -2.2672,0 -4.1072,-1.8251 -4.1072,-4.074 0,-2.2489 1.84,-4.0741 4.1072,-4.0741 2.2671,0 4.1071,1.8252 4.1071,4.0741 0,2.2489 -1.84,4.074 -4.1071,4.074 z"
       fill="white"
       id="path4"
       style="fill:#bd9e59;fill-opacity:1" />
  </g>
</svg>
