<?xml version="1.0" encoding="UTF-8" standalone="no"?>
<svg
   width="58"
   height="58"
   viewBox="0 0 58 58"
   fill="none"
   version="1.1"
   id="svg6"
   sodipodi:docname="Rapidfire_normal_1698999840-Rapidfire-1.svg"
   inkscape:version="1.3 (0e150ed6c4, 2023-07-21)"
   xmlns:inkscape="http://www.inkscape.org/namespaces/inkscape"
   xmlns:sodipodi="http://sodipodi.sourceforge.net/DTD/sodipodi-0.dtd"
   xmlns="http://www.w3.org/2000/svg"
   xmlns:svg="http://www.w3.org/2000/svg">
  <defs
     id="defs6" />
  <sodipodi:namedview
     id="namedview6"
     pagecolor="#ffffff"
     bordercolor="#000000"
     borderopacity="0.25"
     inkscape:showpageshadow="2"
     inkscape:pageopacity="0.0"
     inkscape:pagecheckerboard="0"
     inkscape:deskcolor="#d1d1d1"
     inkscape:zoom="4.0689655"
     inkscape:cx="27.033898"
     inkscape:cy="27.402542"
     inkscape:window-width="1366"
     inkscape:window-height="705"
     inkscape:window-x="-8"
     inkscape:window-y="-8"
     inkscape:window-maximized="1"
     inkscape:current-layer="svg6" />
  <path
     id="path6"
     d="m 2.1038072,50.472377 c 1.944304,-1.300214 4.208914,-1.733619 6.281399,-2.686994 3.8670058,-1.776975 7.9051098,-3.120545 11.7080248,-5.092545 0.256505,-0.130065 0.59827,-0.195025 0.897405,-0.21663 1.153765,-0.08671 1.538305,0.411655 1.217855,1.53845 -0.576955,2.05871 -0.256505,2.492115 2.54243,2.47051 2.606519,-0.26013 5.554949,-1.75537 8.353739,-3.48899 2.179205,-1.365175 2.179205,-2.405405 0.44863,-4.37726 -2.499655,-2.860559 -4.95668,-5.742724 -6.53776,-9.296529 -0.6409,-1.451885 -1.36735,-2.882164 -2.029564,-4.334049 -0.79054,-1.73362 -2.15789,-2.275485 -3.48261,-1.321965 -2.585205,1.841935 -4.935365,3.987354 -7.007704,6.436114 -1.38881,1.625305 -0.91872,3.05544 1.025439,3.727225 1.17508,0.39005 1.346035,0.996875 0.406,1.75537 -2.820249,2.27534 -5.619039,4.529074 -8.5033798,6.717704 -2.45688,1.863685 -4.892589,3.77058 -6.83679352,6.21934 -0.3632104,0.47676 -0.8759739,1.018479 -0.3845689,1.668659 0.4913904,0.671785 1.32464842,0.69339 1.90145842,0.30334 z m 3.533649,-18.596538 c 0.424415,-0.0667 0.76792,-0.311025 1.131725,-0.55535 1.79858,-1.266285 3.3748758,-2.821265 4.9511708,-4.353914 2.889849,-2.821265 5.779844,-5.6202 8.467564,-8.641275 0.84883,-0.977445 1.455075,-2.088145 1.55614,-4.109589 0.08077,-0.84419 -0.666855,-1.73275 -1.778425,-2.2214 -1.111425,-0.51098 -2.24315,-0.688605 -3.193045,0.48865 -0.485025,0.62205 -1.050815,1.1774 -1.515685,1.799305 -2.627109,3.532054 -5.3957398,6.930854 -7.7399548,10.707234 -1.071115,1.71042 -2.38467,3.265399 -3.03137,5.286844 -0.38396,1.155215 0.06061,1.754935 1.172035,1.599495 z M 33.016935,49.300053 c -0.520405,0 -1.06256,0.08729 -1.582965,0.139634 -1.973305,0.174725 -3.68648,1.04777 -5.61643,1.34473 -5.139234,0.76821 -9.931629,2.409755 -14.788983,3.946465 -0.52055,0.17458 -0.954245,0.453995 -0.86739,0.960335 0.08671,0.523885 0.628865,0.681065 1.170875,0.71601 1.06256,0.06989 2.12512,0.08729 3.18768,0.139635 6.483819,0.08743 12.642258,-1.676345 19.039368,-2.04305 1.843095,-0.10469 2.8623,-1.46682 2.66713,-2.968585 -0.19517,-1.589055 -1.105915,-2.200229 -3.231035,-2.200229 z m 19.047923,-5.662395 c -3.70823,-0.269265 -7.437629,-0.16153 -11.103084,0.484735 -2.173695,0.377 -3.281785,1.579775 -3.26047,3.32108 -0.02132,0.93351 0.23432,1.83106 0.426155,2.728609 0.149205,0.71804 0.319725,1.45406 0.61799,2.136285 1.022975,2.441365 2.514735,3.033835 5.540885,2.71063 3.004835,-0.32306 5.519569,-1.59761 8.098104,-2.71063 2.173695,-0.93351 3.98518,-2.38757 5.17853,-4.272569 0.51156,-0.825775 0.74588,-1.63357 -0.27695,-2.279835 -1.57702,-0.987305 -3.217985,-1.97461 -5.26379,-2.136285 z M 27.79824,23.091305 c 1.622405,4.924199 4.218195,9.232874 7.82797,12.925879 1.865859,1.88761 3.102854,2.195445 5.353979,0.882325 3.143455,-1.82613 6.063755,-4.062465 8.537889,-6.750185 3.407065,-3.693149 6.063755,-7.899164 6.956085,-13.028539 0.30421,-1.702879 -0.30421,-3.344279 -1.86586,-3.959804 -2.169925,-0.861735 -4.40075,-1.600365 -6.793684,-1.55933 -0.547665,0.04103 -1.074885,0.06162 -1.622405,0.16414 -5.820445,0.98484 -11.255479,2.95452 -16.203749,6.257764 -2.190225,1.456815 -2.859545,3.016 -2.190225,5.06775 z m 6.307065,-1.6414 c 1.236995,-1.18987 2.818944,-1.76436 4.339849,-2.461955 2.616235,-1.16957 5.414735,-1.57992 8.01067,-2.113375 0.79083,0.08207 1.541204,-0.06148 1.804959,0.67715 0.30421,0.80011 -0.34481,1.21046 -0.872029,1.62081 -3.204355,2.482545 -6.692475,4.534295 -10.07924,6.750185 -1.155939,0.75922 -2.514734,0.41035 -3.386764,-0.779665 -0.83143,-1.12839 -0.730075,-2.76979 0.202855,-3.69315 z M 23.882226,12.362466 c 1.154055,0.872465 2.917979,0.91118 3.985034,0.13572 2.743835,-1.97751 4.442365,-4.5947594 5.31338,-7.5804534 0.52258,-1.803075 -0.08714,-3.6641969 -2.91798,-3.451 -2.547795,0.13572 -4.398865,1.62864 -6.380434,2.753115 -1.263095,0.736745 -2.526045,1.628494 -3.28831,2.927404 -0.391935,0.65917 -0.391935,1.20205 0,1.899935 0.784015,1.3571994 2.003465,2.3459544 3.26656,3.2959944 z"
     style="fill:#bd9e59;fill-opacity:1;stroke-width:1.45" />
</svg>
