<?xml version="1.0" encoding="UTF-8" standalone="no"?>
<svg
   width="58"
   height="58"
   viewBox="0 0 58 58"
   fill="none"
   version="1.1"
   id="svg4"
   sodipodi:docname="StreetDemon_white_1741766467-StreetDemon.svg"
   inkscape:version="1.4 (86a8ad7, 2024-10-11)"
   xmlns:inkscape="http://www.inkscape.org/namespaces/inkscape"
   xmlns:sodipodi="http://sodipodi.sourceforge.net/DTD/sodipodi-0.dtd"
   xmlns="http://www.w3.org/2000/svg"
   xmlns:svg="http://www.w3.org/2000/svg">
  <defs
     id="defs4" />
  <sodipodi:namedview
     id="namedview4"
     pagecolor="#ffffff"
     bordercolor="#000000"
     borderopacity="0.25"
     inkscape:showpageshadow="2"
     inkscape:pageopacity="0.0"
     inkscape:pagecheckerboard="0"
     inkscape:deskcolor="#d1d1d1"
     inkscape:zoom="2.8965517"
     inkscape:cx="28.654762"
     inkscape:cy="28.827381"
     inkscape:window-width="1366"
     inkscape:window-height="705"
     inkscape:window-x="-8"
     inkscape:window-y="-8"
     inkscape:window-maximized="1"
     inkscape:current-layer="svg4" />
  <g
     id="g4"
     style="fill:#bd9e59;fill-opacity:1"
     transform="matrix(1.2083333,0,0,1.2083333,-6.0416657,-6.0416657)">
    <path
       d="m 42.2482,26.12 3.8863,-3.8571 C 48.8982,19.52 48.5009,14.96 45.2882,12.7314 L 34.1645,5 c -1.0018,0.99429 -1.1572,2.55429 -0.38,3.73714 L 39.3464,17 C 36.2891,14.7371 32.6445,13.5714 29,13.5714 c -3.6445,0 -7.2891,1.1657 -10.3464,3.4457 L 24.2155,8.73714 C 25.01,7.57143 24.8545,5.99429 23.8355,5 L 12.7118,12.7314 C 9.49909,14.96 9.10182,19.52 11.8655,22.2629 l 3.8863,3.8571 c 1.6755,-4.2857 6.9782,-7.4057 13.2655,-7.4057 6.2872,0 11.59,3.1371 13.2654,7.4057 z"
       fill="white"
       id="path1"
       style="fill:#bd9e59;fill-opacity:1" />
    <path
       d="m 42.6455,30.5771 c 0,0 -0.0346,0.0686 -0.0346,0.1029 C 41.54,35.5657 35.8573,39.2857 29,39.2857 c -6.8573,0 -12.54,-3.72 -13.6109,-8.6057 0,-0.0343 -0.0346,-0.0686 -0.0346,-0.1029 L 10.4491,25.7086 C 10.1727,26.7714 10,27.8686 10,29 c 0,7.5771 6.7364,13.8686 15.5973,15.1714 0,0.0857 -0.0518,0.1715 -0.0518,0.2572 v 6.8571 C 25.5455,52.2286 26.3227,53 27.2727,53 28.2227,53 29,52.2286 29,51.2857 v -6.8571 c 1.1745,0 2.3145,-0.1029 3.4373,-0.2572 V 47 c 0,1.4229 1.1572,2.5714 2.5909,2.5714 1.4336,0 2.5909,-1.1485 2.5909,-2.5714 V 42.7486 C 43.7682,40.1943 48,35.0171 48,29.0171 48,27.8857 47.8445,26.7886 47.5509,25.7429 l -4.9054,4.8685 z"
       fill="white"
       id="path2"
       style="fill:#bd9e59;fill-opacity:1" />
    <path
       d="M 38.8455,26.0686 C 38.1718,25.4 37.0836,25.4 36.41,26.0686 l -0.8118,0.8057 -1.7618,-2.3314 c -0.57,-0.7543 -1.6582,-0.9086 -2.4182,-0.3429 -0.76,0.5657 -0.9155,1.6457 -0.3455,2.4 l 2.0555,2.7257 -1.9,1.8857 c -0.6737,0.6686 -0.6737,1.7486 0,2.4172 0.3454,0.3428 0.7773,0.4971 1.2263,0.4971 0.4491,0 0.881,-0.1714 1.2264,-0.4971 l 1.5546,-1.5429 1.019,1.3543 c 0.3455,0.4457 0.8637,0.6857 1.3819,0.6857 0.3627,0 0.7254,-0.1028 1.0363,-0.3428 0.76,-0.5658 0.9155,-1.6458 0.3455,-2.4 l -1.33,-1.7486 1.1573,-1.1486 c 0.6736,-0.6686 0.6736,-1.7486 0,-2.4171 z"
       fill="white"
       id="path3"
       style="fill:#bd9e59;fill-opacity:1" />
    <path
       d="m 19.31,33.8 c 0.3109,0.2229 0.6736,0.3429 1.0364,0.3429 0.5181,0 1.0363,-0.24 1.3818,-0.6858 l 1.0191,-1.3542 1.5545,1.5428 c 0.3455,0.3429 0.7773,0.4972 1.2264,0.4972 0.4491,0 0.8809,-0.1715 1.2263,-0.4972 0.6737,-0.6686 0.6737,-1.7486 0,-2.4171 l -1.9,-1.8857 2.0555,-2.7258 c 0.57,-0.7542 0.4145,-1.8342 -0.3455,-2.4 -0.76,-0.5657 -1.8481,-0.4114 -2.4181,0.3429 l -1.7619,2.3314 -0.8118,-0.8057 c -0.6736,-0.6686 -1.7618,-0.6686 -2.4354,0 -0.6737,0.6686 -0.6737,1.7486 0,2.4172 l 1.1572,1.1485 -1.33,1.7486 c -0.57,0.7543 -0.4145,1.8343 0.3455,2.4 z"
       fill="white"
       id="path4"
       style="fill:#bd9e59;fill-opacity:1" />
  </g>
</svg>
