<?xml version="1.0" encoding="UTF-8" standalone="no"?>
<svg
   width="58"
   height="58"
   viewBox="0 0 58 58"
   fill="none"
   version="1.1"
   id="svg6"
   sodipodi:docname="Techie_white_1741766905-Techie.svg"
   inkscape:version="1.4 (86a8ad7, 2024-10-11)"
   xmlns:inkscape="http://www.inkscape.org/namespaces/inkscape"
   xmlns:sodipodi="http://sodipodi.sourceforge.net/DTD/sodipodi-0.dtd"
   xmlns="http://www.w3.org/2000/svg"
   xmlns:svg="http://www.w3.org/2000/svg">
  <defs
     id="defs6" />
  <sodipodi:namedview
     id="namedview6"
     pagecolor="#ffffff"
     bordercolor="#000000"
     borderopacity="0.25"
     inkscape:showpageshadow="2"
     inkscape:pageopacity="0.0"
     inkscape:pagecheckerboard="0"
     inkscape:deskcolor="#d1d1d1"
     inkscape:zoom="2.8965517"
     inkscape:cx="28.654762"
     inkscape:cy="28.827381"
     inkscape:window-width="1366"
     inkscape:window-height="705"
     inkscape:window-x="-8"
     inkscape:window-y="-8"
     inkscape:window-maximized="1"
     inkscape:current-layer="svg6" />
  <g
     id="g6"
     style="fill:#bd9e59;fill-opacity:1"
     transform="matrix(1.3181818,0,0,1.3181818,-9.2272722,-9.2272722)">
    <path
       d="M 33.4789,20.6359 7,47.1204 10.8787,51 37.3576,24.5155 Z"
       fill="white"
       id="path1"
       style="fill:#bd9e59;fill-opacity:1" />
    <path
       d="m 43.6862,14.3154 v 7.3154 h -7.3139 v -7.3154 z m 3.6569,-3.6577 H 32.7154 v 14.6308 h 14.6277 z"
       fill="white"
       id="path2"
       style="fill:#bd9e59;fill-opacity:1" />
    <path
       d="m 47.3431,34.4327 v 7.3154 H 40.0293 V 34.4327 Z M 51,30.775 H 36.3723 V 45.4058 H 51 Z"
       fill="white"
       id="path3"
       style="fill:#bd9e59;fill-opacity:1" />
    <path
       d="m 23.5732,10.6577 v 7.3154 H 16.2593 V 10.6577 Z M 27.2301,7 H 12.6024 v 14.6308 h 14.6277 z"
       fill="white"
       id="path4"
       style="fill:#bd9e59;fill-opacity:1" />
    <path
       d="m 31.5818,35.3471 -8.0086,8.2298 v 7.3154 L 33.8491,40.8337 h 4.3517 v -5.4866 z"
       fill="white"
       id="path5"
       style="fill:#bd9e59;fill-opacity:1" />
    <path
       d="m 22.6589,19.8019 h -5.4853 v 4.3527 L 7.11705,34.4327 h 7.31385 l 8.228,-8.0103 z"
       fill="white"
       id="path6"
       style="fill:#bd9e59;fill-opacity:1" />
  </g>
</svg>
