<?xml version="1.0" encoding="UTF-8" standalone="no"?>
<svg
   width="58"
   height="58"
   viewBox="0 0 58 58"
   fill="none"
   version="1.1"
   id="svg1"
   sodipodi:docname="Virus_white_1741766704-Virus.svg"
   inkscape:version="1.4 (86a8ad7, 2024-10-11)"
   xmlns:inkscape="http://www.inkscape.org/namespaces/inkscape"
   xmlns:sodipodi="http://sodipodi.sourceforge.net/DTD/sodipodi-0.dtd"
   xmlns="http://www.w3.org/2000/svg"
   xmlns:svg="http://www.w3.org/2000/svg">
  <defs
     id="defs1" />
  <sodipodi:namedview
     id="namedview1"
     pagecolor="#ffffff"
     bordercolor="#000000"
     borderopacity="0.25"
     inkscape:showpageshadow="2"
     inkscape:pageopacity="0.0"
     inkscape:pagecheckerboard="0"
     inkscape:deskcolor="#d1d1d1"
     inkscape:zoom="2.8965517"
     inkscape:cx="28.654762"
     inkscape:cy="28.827381"
     inkscape:window-width="1366"
     inkscape:window-height="705"
     inkscape:window-x="-8"
     inkscape:window-y="-8"
     inkscape:window-maximized="1"
     inkscape:current-layer="svg1" />
  <path
     d="M 45.696991,4.1428554 V 8.285663 C 45.696991,8.285663 35.637012,0 29,0 17.833912,0 14.390162,14.5 14.390162,14.5 c 7.57625,-0.745663 8.348496,6.214337 8.348496,6.214337 -7.430163,-4.681445 -10.43565,0 -10.43565,0 v -4.142891 c -7.7849411,6.752891 0,10.357108 0,10.357108 0,0 -6.2613415,2.589338 -6.2613415,8.99 C 6.0416665,50.915662 26.912845,58 26.912845,58 c 0,0 20.8713,-7.084338 20.8713,-22.081446 0,-6.400662 -6.261462,-11.061446 -6.261462,-11.061446 0,0 7.78505,-1.532771 0,-8.285662 v 4.142891 c 0,0 -3.214167,-4.619337 -10.43553,0 0,0 0.772247,-6.96 8.348497,-6.214337 0,0 -2.149746,-1.16 -3.569054,-2.672108 -0.813933,-0.807892 -0.813933,-2.112892 0,-2.920784 0.751342,-0.745662 1.899258,-0.766446 2.713313,-0.165662 0,0 1.961849,1.346446 4.29949,2.837891 C 45.008241,12.946446 47.450162,14.5 49.34942,14.5 c 1.690579,0 2.608914,-1.408554 2.608914,-2.444338 0,-2.278554 -2.191435,-5.634216 -6.261343,-7.9128066 z M 37.348495,26.928554 c 2.629817,1.719338 0,16.571446 0,16.571446 L 33.174187,39.357108 31.087153,47.642892 26.912845,39.357108 22.738658,47.642892 20.651503,39.357108 16.477316,43.5 c 0,0 -2.629817,-14.852108 0,-16.571446 2.629696,-1.719217 6.261342,6.214338 6.261342,6.214338 l 4.174187,-6.214338 4.174308,6.214338 c 0,0 3.631526,-7.933555 6.261342,-6.214338 z"
     fill="white"
     id="path1"
     style="fill:#bd9e59;fill-opacity:1;stroke-width:1.20833" />
</svg>
